<?xml version="1.0" encoding="UTF-8"?>
<svg id="Layer_2" data-name="Layer 2" xmlns="http://www.w3.org/2000/svg" viewBox="0 0 960.05 1048.88">
  <defs>
    <style>
      .cls-1 {
        fill: #52455c;
      }

      .cls-1, .cls-2, .cls-3, .cls-4, .cls-5, .cls-6, .cls-7, .cls-8, .cls-9, .cls-10, .cls-11, .cls-12, .cls-13, .cls-14, .cls-15, .cls-16 {
        stroke-width: 0px;
      }

      .cls-2 {
        fill: #382740;
      }

      .cls-3 {
        fill: #36243d;
      }

      .cls-4 {
        fill: #c9f1ce;
      }

      .cls-5 {
        fill: #cbd6b2;
      }

      .cls-6 {
        fill: #d0673e;
      }

      .cls-7 {
        fill: #96d2be;
      }

      .cls-8 {
        fill: #7caba4;
      }

      .cls-9 {
        fill: #fd9e44;
      }

      .cls-10 {
        fill: #7e5f53;
      }

      .cls-11 {
        fill: #e67a41;
      }

      .cls-12 {
        fill: #fb9c45;
      }

      .cls-13 {
        fill: #faf4cc;
      }

      .cls-14 {
        fill: #687990;
      }

      .cls-15 {
        fill: #676148;
      }

      .cls-16 {
        fill: #68333a;
      }
    </style>
  </defs>
  <g id="Layer_1-2" data-name="Layer 1">
    <g>
      <path class="cls-3" d="m927.66,805.82c.25,1.62-.09,3.09-.91,4.52-15.07,26.36-30.47,52.52-49.59,76.23-5.74,7.11-11.69,14.05-17.94,20.76-9.47,10.15-19.24,19.96-29.43,29.4-13.75,12.73-28.38,24.29-43.7,35.07-15.99,11.25-32.77,21.19-50.24,29.83-20.41,10.09-41.46,18.73-63.22,25.72-23.13,7.42-46.72,12.59-70.62,16.42-9.25,1.48-18.65,2.22-28.03,2.97-14.86,1.19-29.73,2.54-44.61,2.05-17.21-.56-34.4-1.61-51.56-3.5-17.34-1.91-34.3-5.65-51.3-9.18-17.83-3.7-35.04-9.65-52.22-15.64-19.56-6.82-38.49-15.17-56.86-24.66-22.1-11.42-43.07-24.67-63.07-39.59-22.53-16.81-42.93-35.83-62.17-56.17-11.6-12.27-21.5-25.95-31.31-39.68-9.99-13.98-18.55-28.81-26.35-44.11-4.05-7.95-5.07-16.75-7.74-25.08-4.52-14.1-8.81-28.33-16.71-40.97-7.75-12.4-16.97-23.59-30.07-30.86-2.97-1.65-4.53-4.17-5.47-7.31-4.41-14.82-7.77-29.9-9.82-45.19-2.21-16.55-3.66-33.2-4.27-49.93-.28-7.71-.64-15.43-.47-23.13.09-4.15-1.35-6.98-4.4-9.42-15.23-12.18-26.64-27.39-34.26-45.23-5.04-11.78-10.54-23.36-15.48-35.15-5.4-12.9-6.85-26.71-5.22-40.82,1.14-9.89,3.45-19.31,8.12-28.09,1.59-3,3.54-5.81,5.43-8.64,3.62-5.38,5.52-11.56,8.03-17.43,6.13-14.35,14.2-27.4,25.37-38.36,3.72-3.65,7.64-7.2,11.89-10.19,3.94-2.78,6.03-6.59,8.45-10.51,4.78-7.75,6.49-16.37,8.46-24.97.46-2.02.76-4.16,2.51-5.62-.77,5.32-2.97,10.33-3.41,15.73-.26.73-.61,1.44-.76,2.19-1.55,7.55-3.42,7.17,5.78,7.2,8.66.03,16.82-3.11,25.32-4.04,22.55-2.46,43.9,1.58,63.49,12.99,26.99,15.72,43.47,39.77,52.99,69.04,3.99,12.27,5.66,24.96,7.01,37.71.17,3.65.34,7.31.5,10.96-.32,2.07-.32,4.15,0,6.22-.56,19.34-3.76,38.19-10.47,56.39-.23.61-.46,1.22-.69,1.82-.15.11-.21.25-.17.43-.37.68-.79,1.35-1.11,2.06-10.64,23.79-25.44,44.1-48.24,57.73-2.1,1.12-4.2,2.24-6.29,3.35-.32.23-.64.47-.96.7,0,0-.07-.09-.07-.09-1.1.41-2.22.78-3.3,1.22-26.92,11.13-53.53,10.27-79.8-2.14-2.05-.97-2.84-.67-2.79,1.6.1,5.63.19,11.26.29,16.89-.79,2.64-.92,5.27.2,7.87.48,5.31.38,10.65.76,15.99.7,9.7,1.6,19.38,2.48,29.06.21,2.31,1.23,4.06,3.37,5.34,18.19,10.89,33.17,24.93,44.32,43.21,8.81,14.45,15.21,29.76,19.68,45.99.95,3.45-.03,8.61,2.87,9.98,2.94,1.39,7.36-.28,11.12-.73,4.67-.56,9.35-.97,13.03-4.61,6.87-6.81,13.76-13.61,21.14-19.9,10.54-6.75,21.96-10.83,34.52-11.64,2.97-.19,5.52.29,8.17,1.84,35.19,20.49,72.91,35.17,111.26,48.42.09.09.17.23.28.27,39.51,13.75,79.77,24.73,120.91,32.34,25.46,4.71,50.97,9.12,76.88,10.59,3.54,1.09,7.25,1,10.87,1.25,37.01,2.52,74.05,3.27,111.14,1.95,35.14-1.25,69.99-4.88,104.57-11.29,34.35-6.36,67.99-15.12,100.4-28.3,1.28-.52,2.9-.6,3.49-2.23.64-.09,1.32-.08,1.91-.3,13.53-4.88,26.58-10.89,39.54-17.09,9.42-4.5,18.81-9.09,27.67-14.7,2.7-1.71,2.89-3.1.63-5.34-2.53-2.51-5.28-4.58-8.6-5.87-2.55-2.02-5.89-2.33-8.61-3.96-.33-3.4.58-6.87-.55-10.22,0-2.88-.02-5.76-.02-8.64.79-3.16.94-6.31-.2-9.44-.21-3.31-.12-6.67-1.34-10.05-1.07.52-2.1.82-2.89,1.44-5.04,3.91-10.47,7.14-16.18,9.96-7.17,3.54-14.62,6.4-22.08,9.23-5.99,1.81-11.98,3.62-17.96,5.43-.77.08-1.56.08-2.32.25-48.63,11.19-97.93,17.65-147.7,20.45-42.79,2.4-85.62,2.36-128.46.49-49.9-2.19-99.54-6.83-148.81-15.17-26.5-4.48-52.86-9.39-77.94-19.61-37.01-15.09-69.01-36.73-92.72-69.55-7.16-9.92-12.95-20.58-18.33-31.52.04-.18-.02-.32-.17-.42-.21-.42-.41-.84-.62-1.26-.73-2.22-1.43-4.46-2.21-6.67-4.99-14.11-8.79-28.48-8.79-43.58,0-8.87,1.92-17.15,8.54-23.67,1.16-1.14,1.33-2.46,1.23-3.94-.46-6.91-.9-13.82-1.34-20.73.02-15.45.03-30.91.05-46.36.06-1.71.11-3.42.17-5.12.83-1.62.65-3.34.46-5.05.16-2.14.33-4.29.49-6.43,1.56-12.66,3.54-25.25,6.51-37.67,2.88-9.77,6.31-19.34,10.07-28.79,7.1-15.57,16.05-29.95,27.43-42.8,23.23-26.26,51.81-45.07,83.29-59.77,55.23-25.78,113.63-40.67,173.57-50.18,10.45-1.66,20.95-3.07,31.42-4.6,1.56-.1,3.12-.19,4.67-.29.85.15,1.68.23,2.39-.42h.21c7.17-.54,14.33-1.12,21.5-1.64,5.21-.38,5.25-.36,3.7-5.24-16.74-52.47-42.32-99.93-80.32-140.16-25.27-26.75-54.27-48.33-88.91-61.66-5.82-2.24-11.54-4.4-18.18-3.09-8.05,1.59-16.27,2.27-24.42,3.34.43-.29.83-.81,1.29-.85,11.02-1.01,19.55-8.19,29.46-11.95,9.25-3.51,19.01-4.25,28.57-6.11,1.21-.24,2.38.06,2.8,1.51-4.25,1.21-8.82,1.04-14.03,2.95,6.89,1.8,12.28,4.44,17.6,7.15,38.02,19.34,69.53,46.34,95.27,80.35,28.93,38.24,50.35,80.2,64.03,126.14,2.78,9.35,2.75,9.41,12.72,6.98.78,0,1.56.05,2.34,0,22.88-1.35,45.76-2.44,68.69-1.45,1.01.04,2.02,0,3.32,0-.89-3.21-1.6-6.11-2.49-8.96-9.73-31.23-23.08-60.85-40.05-88.81-27.92-46.02-63.19-84.94-109.85-112.7-6.1-3.63-12.06-7.77-19.14-9.31-13.25-2.88-26.72-4.22-40.26-4.56-11.38-.29-22.72.62-34.04,1.7-.84.13-1.68.26-2.52.39.07-1.97,1.39-2.19,2.98-2.26,12.26-.54,24.48-2.4,36.78-1.52,8.99.64,17.83-1.46,26.82-.88,16.39,1.05,31.98,4.18,45.97,13.64,7.93,5.36,15.49,11.09,22.62,17.42,1.11.98,2.42,1.5,3.73,2.11,1.97.92,4.38,1.06,5.76,3.08-.63.09-1.55-.06-1.83.3-.84,1.07.49,1.14.97,1.53,7.82,6.22,14.98,13.16,22.01,20.24,1.4,1.55,2.77,3.11,4.2,4.64,8.5,9.08,16.2,18.83,24.02,28.49,1.01,1.52,1.98,3.07,3.05,4.54,27.34,37.78,47.42,79.17,61.14,123.67,1.44,4.66,2.45,8.76,8.59,7.78.14-.02.35.34.52.52-.09,2.38,1.19,3.26,3.41,3.24,2.75-.03,5.5.04,8.25-.02.95-.02,2.51.39,2.51-1.06,0-1.27-1.5-1.14-2.53-1.25-3.35-.35-6.8.73-10.07-.71,4.98.25,10.03-1.38,14.95.58-.75,2.48.36,3.27,2.74,3.28,3.12.02,6.22-.04,9.36.39,7.99,1.09,16.02,1.85,24.04,2.68.97.1,2.45.33,2.59-1.02.15-1.47-1.41-1.23-2.34-1.39-6.55-1.09-13.13-1.86-19.76-2.26-4.26-.26-8.53-.48-12.72-1.46,9.47-.78,18.78.92,28.14,1.85,15.65,1.56,31.06,4.59,46.47,7.64,4.01,1.09,8.02,2.17,12.02,3.28,11.05,3.08,21.97,6.53,32.39,11.41.9.42,2.66,2.45,2.85-.71.7.31,1.46.54,2.09.95.85.55,1.89,1.14,1.43,2.43-.36,1-1.26,1.31-2.23,1.09-1.84-.42-2.15.93-2.64,2.13-6.68-3.36-13.64-6.02-20.7-8.45-10.53-3.63-21.43-5.91-32.14-8.85,3.5-.89,6.65,1,9.99,1.27.94.07,2.36,1.1,2.77-.21.48-1.54-1.18-1.73-2.26-2.02-11.98-3.17-24.19-5.14-36.42-6.97-1-.15-2.39-.59-2.69.72-.36,1.58,1.25,1.32,2.16,1.48,7.17,1.31,14.35,2.6,21.53,3.82,1.82.31,3.63.46,4.98,1.93-1.55-.21-3.12-.33-4.65-.64-27.29-5.63-54.96-7.71-82.71-8.98-6.09-.28-6.09-.18-4.66,5.8,1.65,6.88,1.64,6.91-5.5,6.64-33.69-1.25-67.32-.7-100.77,4.04-3.66-1.82-2.9-5.74-3.93-8.71-2.41-6.97-2.2-7.05-9.76-6.13-.13.02-.25.07-.37.11-53.51,4.37-106.09,13.74-157.55,29.22-38.87,11.69-76.55,26.14-110.7,48.46-35.22,23.02-62.48,52.69-75.94,93.5-6.1,18.48-10.24,37.32-10.72,56.85-.16,1.41-.4,2.81-.47,4.22-.64,12.34-.91,24.69-.78,37.04,0,.56.01,1.12.02,1.67.17,4.43.34,8.87.51,13.3-.8,2.38-.92,4.75.23,7.07.78,10.68,1.55,21.35,3.13,31.96,3.52,23.61,9.96,46.2,22.51,66.73,2.92,4.77,5.6,9.72,9.57,13.77,2.71,4.53,6.27,8.38,9.88,12.16,29.65,31.08,66.31,49.61,107.85,58.45,52.24,11.11,105.25,16.69,158.54,19.73,40.44,2.31,80.9,2.65,121.4,1.84,56.23-1.12,111.84-7.28,166.79-19.19,19.98-4.33,39.7-9.5,57.59-20.07,17.45-10.31,29.31-24.56,32.72-44.91,2.46-14.71-.36-28.95-4.79-42.94-3.63-11.49-7.35-22.95-9.98-34.72-9.8-43.86-12.66-88.34-11.84-133.15.49-26.5,2.43-52.88,8.03-78.84,2.16-10.01,1.38-19.47-2.31-28.86-1.86-4.74-3.73-9.49-5.59-14.23,3.86,2.7,5.85,6.81,6.68,11.06.73,3.72,1.57,7.2,3.05,10.73,1.42,3.38,1.68,7.42,1.01,11.02-2.52,13.62-4.39,27.34-6.68,40.99-1.39,8.28.28,16.31,1.25,24.34.59,4.93,5.52,7.8,8.99,11.03,15.01,13.91,23.59,31.07,26.55,51.14,2.91,19.65-2.04,37.55-12.21,54.34-3.86,6.36-9.41,11.59-12.16,18.69-.63,1.63-1.06,3.01-.91,4.8.28,3.37.23,6.75-.33,10.16-.77,4.71,1.47,9.19,1.55,13.94.09,4.73.8,9.61,2.22,14.12,2.06,6.58,3.94,13.2,5.76,19.86,3.78,13.78,5.52,27.62,1.91,41.71-1,3.88-.81,7.81-.7,11.72.39,14.36-1.17,28.44-5.42,42.21-2.18,7.08-1.7,14.5-2.36,21.77-.36,3.9-.46,7.84-1.34,11.65-.65,2.82.04,4.56,2.85,5.44,6.7,2.1,10.99,6.5,12.02,13.52.53,3.62.25,7.31-2.69,10.14-.18-1.72-1.11-.92-1.86-.52-1.83.99-3.6,2.09-5.46,3.01-13.02,6.49-26.06,12.96-39.1,19.43-1.59.59-3.21,1.1-4.76,1.77-31.56,13.63-63.97,24.65-97.62,31.91-41.81,9.02-84.09,14.32-126.82,16.11-27.62,1.16-55.24,1.01-82.86.04-2.06-.06-4.11-.13-6.17-.19-24.2-.97-48.29-3.28-72.25-6.71-47.6-6.81-94.43-17.14-140.22-31.93-1.24-.4-2.45-.98-3.81-.56-4.72-1.38-9.16-3.53-13.74-5.26-7.93-3-16.01-5.6-23.93-8.6-13.41-5.08-26.76-10.33-40.13-15.51-.31-.23-.6-.53-.94-.67-17.86-7.55-35.32-15.92-51.95-25.93-1.61-.97-3.34-1.44-5.24-1.29-9.63.77-18.85,2.91-27.34,7.75-7.74,4.41-14.1,10.49-19.97,16.98-6.73,7.44-14.77,11.43-24.71,11.87-2.35.1-4.68.78-7.01.78-2.79,0-3.79,1.35-4.41,3.87-1.84,7.48-3.77,14.96-9.19,20.92,11.8,4.89,24.27,6.78,36.24,10.44,1.17.36,1.64-.61,2.16-1.3,5.71-7.63,11.65-15.07,17.98-22.2,3.89-4.38,7.54-9.22,13.99-10,8.22-1.01,16.45-1.92,24.67-2.87,1.59.8,3.27.43,4.93.4,5.88,3.19,11.75,6.42,17.66,9.57,15.49,8.24,31.38,15.6,48.01,21.3,10.15,4.43,20.67,7.86,31.1,11.56,8.72,3.09,17.55,5.82,26.36,8.64,1.33.49,2.63,1.06,3.98,1.46,16.16,4.71,32.34,9.36,48.75,13.16,9.05,2.1,18.16,3.98,27.26,5.88,8.84,1.84,17.64,4,26.56,5.23,5.79.8,11.49,2.16,17.37,2.59,6.62.48,13.16,1.88,19.76,2.73,5.69.73,11.41,1.26,17.12,1.83,4.11.41,8.23.73,12.34,1.15,4.35.45,8.68,1.14,13.04,1.42,6.33.41,12.68.49,19.01.82,9.32.48,18.64,1.37,27.96,1.53,14.77.26,29.56.06,44.33.06,2.7.25,5.39.3,8.07-.12,3.08-.13,6.16-.27,9.24-.4,3.16.78,6.3.91,9.41-.22,4.31-.02,8.74.57,12.91-.21,6.71-1.26,13.47-.43,20.19-1.44,7.12-1.08,14.48-.63,21.61-1.68,9.38-1.38,18.83-2.29,28.19-3.84,11.87-1.97,23.76-3.76,35.58-6,27.6-5.23,54.8-11.94,81.27-21.44,8.76-3.14,17.68-5.84,25.97-10.18,3-1.18,6.07-2.21,8.99-3.57,9.28-4.31,18.5-8.75,27.74-13.13Zm-469.05,168.66c-1.99-1.17-4.33-1.08-6.46-1.78-29.63-7.42-57.94-18.35-85.07-32.31-10.84-5.58-21.63-11.35-31.98-17.78-10.26-6.38-19.91-13.74-29.89-20.58-6.72-4.61-12.89-9.92-18.78-15.47-3.61-3.4-7.48-4.35-12.07-4.05-9.02.6-10.51,9.7-8.34,15.95,1.73,5,6.2,7.69,9.72,11.27,5.72,5.83,12.11,10.83,18.42,15.87,10.29,8.23,21.27,15.58,32.48,22.55,18.73,11.66,38.35,21.53,58.72,30,15.9,6.61,32.1,12.3,48.61,17.18,3.94,1.16,7.82,2.4,11.95,2.57,1.31,2.26,3.91.89,5.62,2.01,1.52.19,3.03.38,4.55.56,7.12,2.93,14.63,4.08,22.21,4.88,4.8,1.7,9.89,1.98,14.83,2.97,5.84,1.17,11.74,2.45,17.65,2.68,6.69.25,13.25,1.46,19.93,1.83,8.16.46,16.3.79,24.47.82.62.35,1.11.3,1.37-.45,7.24-4.05,7.4-9.66,6.08-15.71-1.28-5.85-4.7-8.94-12.17-9.21-14.62-.53-29.14-2.32-43.63-4.33-7.48-1.04-14.78-3.23-22.4-3.3-6.84-2.57-14.03-3.63-21.17-4.9-1.55-.42-3.09-.85-4.64-1.27ZM77.87,704.45c-.84.39-.42.65.09.9.47,4.88,2.3,8.62,6.83,11.4,8.56,5.26,15.68,12.18,21.8,20.26,12.24,16.18,20.27,34.27,25.86,53.62.83,2.89.79,6.27,3.39,8.72,2.3-3.11,3.14-6.29,2.77-9.84-1.05-10.04-3.25-19.82-6.33-29.43-5.23-16.29-12.61-31.48-22.93-45.18-9.53-12.64-21.64-22.14-36.19-29.99,1.04,7.25,2.27,13.57,4.63,19.65l.09-.12Zm854.59-207.45c.23,7.1.46,14.2.69,21.3-.75,1.05-.74,2.08.11,3.08.54,1.07-.31,2.62,1.31,3.53,4.72-7.83,7.98-16.15,9.56-25.06.9-5.06,2.15-10.17.96-15.39,1-13.07-2.62-25.06-8.61-36.48-.97-1.85-1.82-3.86-4.12-5.93v38.49c-.8,1.32-.84,2.62.11,3.89.17.46.33.91.5,1.37-.18.87-.37,1.74-.55,2.62-1.02,2.87-1.08,5.73.05,8.59Zm-229.46,478.03c-1.02-9.76-3.71-19.22-5.09-28.9-.57-4-2-4.15-5.12-2.71-2.23,1.03-4.66,1.77-7.07,2.25-2.15.43-2.83,1.37-2.39,3.46,2.11,9.95,4.17,19.91,6.24,29.86.32,2.84.59,5.68.98,8.5.14,1.02.61,2.33,1.89,1.95,4.2-1.25,9.29-1.53,12.16-4.58,2.04-2.17-.48-6.33-1.37-9.53-.03-.12-.15-.21-.23-.31Zm20.24-10.23c-.76-9.63-3.66-18.87-5.27-28.35-.24-1.42-.87-1.62-2.17-1.1-4.11,1.65-8.25,3.23-12.41,4.75-1.17.43-1.69.92-1.42,2.25,1.9,9.56,3.29,19.23,5.82,28.67.56,3.33,1.23,6.65,1.64,10,.21,1.73.78,1.95,2.22,1.23,3.48-1.74,7.06-3.3,10.47-5.17,1.44-.79,2.86-2.08,2.68-4.02-.27-2.79-.21-5.67-1.56-8.27Zm-38.64,15.57c-1.36-10.13-3.84-20.04-5.83-30.05-.36-1.79-.83-2.47-2.82-1.79-3.96,1.35-7.99,2.54-12.05,3.54-1.79.44-1.99,1.31-1.67,2.79,2.07,9.59,4.12,19.19,6.18,28.78.5,2.69,1.15,5.37,1.47,8.08.31,2.59,1.73,3.29,4.01,2.89,1.14-.2,2.25-.57,3.38-.87q10.56-2.86,7.33-13.38Zm-46.14,4.14c2.76,7.72,9.33,12.5,17.27,12.54,11.39.06,10.78-1.08,7.76-11.9-1.91-9.71-3.84-19.42-5.72-29.14-.31-1.59-.76-2.2-2.52-1.44-4.31,1.85-8.72,3.46-13.07,5.22-2.01.82-3.39,2.35-4.43,4.24-3.83,6.97-2.72,13.75.7,20.46Zm-193.34-39.25c.96.4,1.88.94,2.87,1.17,8.65,2.02,17.43,3.4,26.26,4.08,6.62.51,13.32.15,19.98.08,1.57-.02,3.52-.38,3.77-2.15.29-2.14-1.84-2.54-3.41-3.08-.6-.21-1.29-.14-1.94-.23-4.77-.7-9.54-1.42-14.31-2.11-9.57-1.39-18.91-3.89-28.36-5.83-1.1-.42-2.18-.9-3.3-1.24-25.58-7.6-50.09-17.52-72-33.11-2.21-1.57-3.34,0-3.95,1.83-.47,1.42-.07,3.08.93,4.06,1.95,1.91,3.6,4.09,5.83,5.77,11.06,8.33,23.23,14.71,35.76,20.46,10.22,4.69,20.79,8.29,31.87,10.3ZM100.95,503.29c-2.99,4.58-5.05,9.7-8.27,14.17-2.5,3.46-2.13,4.59,1.68,6.55,7.51,3.87,17.46,1.48,23.73-5.7,8.7-9.3,12.02-20.77,13.38-33.04,1.81-7.61,1.54-15.31.69-22.96-1.83-16.47-6.85-31.7-18.43-44.08-13.88-14.85-35.57-19.63-52.71-11.56,6.76.89,12.8,2.78,18.3,6.29,10.58,6.74,17.33,16.47,22.12,27.8,4.64,10.96,5.45,22.54,5.55,34.23-.91,9.67-3.16,19.05-6.04,28.3Zm19.58,82.7c1.55-.22,3.14-.29,4.64-.69,24.91-6.56,41.9-22.53,53.39-45.02,14.91-27.54,18.05-56.94,13.8-87.51-1.65-18.13-7.13-35.05-16.47-50.66-2.53-4.24-5.01-8.6-8.84-11.92-.15-.36-.23-.78-.47-1.06-16.28-19.09-35.59-31.67-62.05-29.74-15.82,1.15-29.63,7.14-42.2,16.36-7.48,5.49-13.73,12.32-19.07,19.88-3.32,4.7-6.53,9.54-8.86,15.58,5.78-3.34,10.93-6.38,16.13-9.33,21.55-12.21,44.64-10.17,63.64,5.56,5.19,4.29,9.23,9.59,13.24,14.92.26.59.46,1.22.79,1.78,18.71,31.67,16.94,86.76-15.78,115.89-.98.64-1.99,1.25-2.94,1.93-11.01,7.88-23.15,11.18-36.67,9.47-13.11-1.66-24.43-7.31-34.92-15.01-1.05-.77-1.89-2.1-3.36-2-.54.93-.2,1.44.14,2.03,4.07,7.25,8.51,14.18,13.97,20.55,17.76,20.69,39.46,32.11,67.31,29.84,1.54-.13,3.16.04,4.57-.86Zm-80.14-165.63c-5.49,2.18-9.61,6.34-12.9,10.81-8.77,11.92-13.17,25.41-13.15,40.42.01,12.38,2.45,23.9,8.62,34.73,12.02,21.07,37.47,26.34,55.08,11.57,15.9-13.33,24.04-41.79,17.64-61.77-2.07-13.22-7.84-24.4-18.85-32.28-11.36-8.13-23.58-9.8-36.45-3.48Zm539.02,488.7c-19.59-1.16-39.13-2.82-58.59-5.47-39.93-5.43-79.05-14.22-117.17-27.33-5.19-1.78-10.36-3.62-15.63-5.11-5.08-1.43-8.1,1.1-8.08,6.3.02,6.12,4.8,9.1,8.71,12.19,17.55,13.88,37.55,23.22,58.65,30.31,25.06,8.41,50.86,13.32,77.16,15.56,12.78,1.09,25.6,1.62,38.43.82,1.44.06,2.87.2,4.31.17,19.41-.4,38.53-3.06,57.39-7.54,13.27-3.15,26.28-7.08,38.45-13.39,2.14-1.11,4.34-2.52,3.6-5.38-.73-2.8-3.34-2.05-5.31-2.02-17.51.22-34.97,1.92-52.52,1.68-9.81-.13-19.58-1.45-29.4-.78Zm147.59,49.7c1.92-.74,3.5-1.27,5.02-1.94,14.5-6.41,28.37-14,41.79-22.45,18.08-11.38,34.69-24.52,49.43-40.02,4.03-4.24,5.09-9.16,3.34-14.44-2.66-8.02-12.11-9.52-18.41-3.44-24.37,23.52-52.56,41.42-83.46,55.12-2.06.91-2.62,1.77-2.2,4.04,1.42,7.57,3.77,14.97,4.49,23.13Zm-93-.13c-23.46,2.49-46.2,2.97-68.98,2.2-3.66-.12-7.33-.61-10.97-.4-6.24.37-9.46,3.73-9.81,9.6-.49,8.08,2.41,13.02,8.25,14.6,3.53.96,7.05,1.13,10.69,1.24,22.14.68,44.25,1.02,66.33-1.53,2.18-.25,2.05-.93,1.62-2.33-2.47-8-2-15.69,2.87-23.39Zm-396.34-175.28c-8.47-.28-16.01,1.29-23.63,2.07-5.76.59-10.35,2.34-14.25,6.91-2.34,2.73-4.82,5.45-7.24,8.15-3.98,4.45-7.55,9.28-11.95,14.78,10.44,0,19.84,0,29.24,0,1.31,0,2.18-.81,2.98-1.69,8.56-9.49,16.84-19.19,24.85-30.22Zm692.98-310.34c.3-2.21.58-3.43-.13-4.77-.52,1.39-.45,2.62.13,4.77Z"/>
      <path class="cls-12" d="m918.37,313.05c1.86,4.74,3.73,9.49,5.59,14.23,3.69,9.39,4.47,18.85,2.31,28.86-5.61,25.95-7.55,52.33-8.03,78.84-.83,44.81,2.04,89.29,11.84,133.15,2.63,11.77,6.34,23.24,9.98,34.72,4.43,13.99,7.25,28.23,4.79,42.94-3.41,20.35-15.27,34.6-32.72,44.91-17.89,10.57-37.61,15.74-57.59,20.07-54.95,11.91-110.56,18.07-166.79,19.19-40.5.8-80.96.46-121.4-1.84-53.28-3.04-106.3-8.62-158.54-19.73-41.54-8.84-78.19-27.37-107.85-58.45-3.61-3.78-7.17-7.63-9.88-12.16,4.7-.82,3.5-4.31,2.85-7.06-2.28-9.69-5.51-19.11-8.67-28.54-5.08-15.17-8.58-30.74-11.23-46.49-3.9-23.22-4.29-46.78-6.37-70.18-.75-8.41-2.41-16.36-10.07-21.55-.58-.4-.83-1.29-1.24-1.95.48-19.53,4.63-38.37,10.72-56.85,13.46-40.81,40.72-70.49,75.94-93.5,34.15-22.32,71.83-36.77,110.7-48.46,51.46-15.48,104.04-24.85,157.55-29.22,3.18.15,4.78,2,5.49,4.95.52,2.14,1.2,4.24,1.88,6.34,1.47,4.59,1.94,4.82,6.69,3.44,33.45-4.74,67.08-5.29,100.77-4.04,7.14.26,7.14.24,5.5-6.64-1.43-5.98-1.43-6.08,4.66-5.8,27.76,1.27,55.43,3.35,82.71,8.98,1.53.32,3.1.43,4.65.64,0,0-.06-.03-.06-.03,10.72,2.93,21.61,5.22,32.14,8.85,7.06,2.44,14.02,5.09,20.7,8.45,0,0,.26-.16.26-.16.33.3.66.61.99.91,9.72,8.52,18.34,18.08,26.46,28.11.38.49.76.98,1.14,1.46,0,0,.02.03.02.03.24.29.49.59.73.88,0,0-.07-.07-.07-.07.27.32.54.64.8.95,0,0-.15,0-.15,0,.81,1.75,1.81,3.37,3.23,4.7,0,0-.05-.02-.05-.02,3.18,5.61,6.35,11.23,9.53,16.84l-.07.19.16.12Zm-286.61,382.82c38.11.28,73.99-.46,109.81-3.07,35.03-2.55,69.92-6.28,104.33-13.54,18.24-3.85,36.23-8.48,52.34-18.43,12.47-7.7,21.79-17.93,25.98-32.27,2.53-8.67,2.72-17.07-1.35-25.6-4.63-9.69-7.87-19.97-10.08-30.52-6.89-32.85-9.05-66.17-9.07-99.61-.03-40.17,3.31-80.06,12.76-119.27,1.23-5.13,1.64-10.3.62-15.58-1.98-10.25-6.37-19.39-12.68-27.59-10.63-13.82-24.93-22.58-40.9-28.85-29.11-11.42-59.72-15.55-90.6-17.88-31.77-2.4-63.6-2.1-95.44-1.13-58.44,1.78-116.14,9.3-173.1,22.36-36.32,8.32-71.94,18.9-105.27,35.99-48.78,25.02-82.35,62.92-97.57,116.19-8.95,31.31-10.57,63.19-6.97,95.39,2.74,24.54,8.86,48.15,21.09,69.85,19.83,35.19,49.99,57.61,87.89,70,24.14,7.89,49.37,10.77,74.41,14,51.77,6.67,103.86,8.81,153.8,9.57Z"/>
      <path class="cls-11" d="m75.48,335.06c.45-5.39,2.65-10.4,3.41-15.73,0,0,.09-.2.09-.2,0,0-.18-.13-.18-.13,1.92-4.22,3.03-8.69,4.1-13.17,0,0-.18-.19-.18-.19.8-.52.9-1.33.94-2.17,0,0-.14-.16-.14-.16.74-.49.86-1.24.85-2.04,0,0-.05.09-.05.09.75-.65.85-1.53.85-2.44,0,0-.06.09-.06.09.76-.65.84-1.54.85-2.45,0,0-.06.1-.06.1,1.57-2.72,2.42-5.71,3.19-8.73,0,0-.07.07-.07.07.25-.57.5-1.14.75-1.7,0,0,.03-.32.03-.32.65-.52.82-1.23.83-2.01,0,0-.05.09-.05.09.6-.41.75-1.03.78-1.7,0,0,0-.29,0-.29.66-.52.84-1.24.85-2.02,0,0-.05.1-.05.1.61-.41.76-1.03.78-1.71,0,0,0-.3,0-.3.66-.51.85-1.23.85-2.02,0,0-.04.1-.04.09.76-.63.95-1.48.93-2.41,0,0-.04.12-.05.12,1-.86,1.39-2,1.53-3.27,0,0-.07.06-.07.06.63-.42.78-1.06.83-1.75,0,0-.09-.26-.09-.26.27-.42.54-.84.8-1.27l.12-.16s-.13-.14-.13-.15c.24-.41.47-.82.7-1.23,6.48-13.57,12.82-27.22,20.47-40.2,49.78-84.38,119.41-145.77,210.8-181.93,1.57-.62,3.11-1.36,4.66-2.04.4-.22.81-.44,1.21-.66,0,0,.25.09.25.09.68-.28,1.37-.56,2.05-.84.15.11.28.09.38-.06,1.49-.12,2.84-.58,4.01-1.53,0,0-.07.03-.07.03.79,0,1.52-.13,2.02-.81,0,0,.25.06.25.06.81-.01,1.56-.16,2.1-.85,0,0,.28.03.28.03.79-.02,1.55-.13,2.08-.82,0,0,.28.04.28.04.69-.02,1.35-.11,1.76-.76,0,0-.11.08-.11.08,1.87-.11,3.66-.46,5.16-1.7,0,0,.2.09.2.09,1.04-.04,2.05-.15,2.87-.89.15.11.28.09.38-.06.76,0,1.48-.1,2.02-.73l.17.11s.16-.12.16-.12c.78-.02,1.54-.08,2.06-.78,0,0,.21.12.21.12,1.05-.04,2.08-.15,2.91-.9,0,0,.31.01.31.01.91,0,1.8-.08,2.49-.79,0,0-.09.05-.09.05,1.02.04,1.99-.08,2.78-.83l.16.11s.16-.11.16-.11c5.39-1.17,10.79-2.33,16.18-3.49,1.08.31,2.3.38,2.81,1.66-4.67-.04-9.02,1.49-13.35,2.92-29.27,9.66-56.34,23.78-82.19,40.43-28.19,18.16-53.68,39.42-76.25,64.29-13.48,14.86-25.81,30.57-37.1,47.08-14.66,21.44-26.51,44.46-37.08,68.17-8.98,20.15-15.89,40.96-21.37,62.29-.7,2.72-.86,4.17,2.83,4.5,10.52.93,21.04,2,31.37,4.5,21.46,5.2,41.48,13.6,59.73,26.08,16.26,11.11,30.88,24.15,44.59,38.23,1.19,1.22,2.36,2.48,4.15,2.82-3.77,9.45-7.2,19.03-10.07,28.79-1.52-.48-1.59-1.98-2.14-3.11-14.2-29.34-34.5-53.14-63.15-69.26-32.48-18.27-66.9-22.58-103.03-13.82-4.43,1.08-8.8,2.43-13.2,3.66Z"/>
      <path class="cls-11" d="m876.74,252.52c-.19,3.17-1.95,1.13-2.85.71-10.42-4.88-21.34-8.33-32.39-11.41-4-1.12-8.01-2.19-12.02-3.28-.26-.73-.42-1.51-.79-2.19-11.02-20.22-25.25-38.1-40.85-54.85-17.76-19.07-37.21-36.26-58.31-51.66-20.16-14.71-41.42-27.38-64.03-37.86-1.33-.62-2.78-1.72-4.37-.43-7.81-9.66-15.52-19.41-24.02-28.49-1.42-1.52-2.8-3.09-4.2-4.64.81-.8,1.69-.42,2.57-.15,19.66,5.95,39.56,11.19,58.53,19.26,13.85,5.9,27.51,12.2,40.75,19.4,5.24,2.85,10.05,6.7,16.16,7.79,0,0,0,0,0,0,.32.24.65.48.97.72,15.21,10.74,29.15,22.98,42.5,35.92,24.46,23.7,45.5,50.16,63.83,78.82.56.87,1.23,1.67,1.84,2.51l.92,1.53h0c.21,1,.7,1.82,1.51,2.44,0,0-.03-.06-.03-.06.29.5.59,1.01.88,1.51,0,0,.02.04.02.04.24.3.48.6.71.9,0,0-.11-.08-.11-.08.03.68.27,1.25.88,1.63,0,0-.04-.06-.04-.06.28.53.57,1.06.85,1.58h0c.26.39.51.8.77,1.2-.1.16-.06.29.11.37.22.37.43.73.65,1.1-.04.21.03.38.21.49.2.28.41.55.61.83,0,0-.07-.07-.07-.07.28.54.56,1.08.84,1.62,0,0-.02-.02-.02-.02,1.84,3.41,3.68,6.83,5.52,10.24,0,0-.02-.04-.02-.04.28.53.55,1.07.83,1.6h-.01c.18,1.09.72,1.99,1.53,2.75-.09.16-.05.28.12.35Z"/>
      <path class="cls-6" d="m391.73,27.49c-.5-1.29-1.73-1.35-2.81-1.66,4.71-1.19,9.41-2.39,14.12-3.58.12.14.25.15.39.04,8.15-1.07,16.37-1.75,24.42-3.34,6.64-1.31,12.36.85,18.18,3.09,34.63,13.34,63.64,34.91,88.91,61.66,38,40.23,63.58,87.69,80.32,140.16,1.56,4.88,1.51,4.86-3.7,5.24-7.17.52-14.34,1.1-21.5,1.65-1.1-1.55-1.2-3.44-1.73-5.18-2.74-8.87-5.18-17.84-8.23-26.6-6.02-17.3-13.28-34.09-21.78-50.35-10.53-20.15-23.24-38.77-38.72-55.39-13.69-14.7-29-27.56-46.47-37.58-8.12-4.65-16.31-9.44-25.65-11.47-12.68-5.88-25.71-10.81-39.32-14.12-4.28-1.73-8.48-3.89-13.35-2.5-1.03-.03-2.05-.05-3.08-.08Z"/>
      <path class="cls-14" d="m467.12,4.77c.84-.13,1.68-.26,2.52-.39,3.58,2.66,7.96,3.64,11.88,5.64,25.47,13.01,47.8,30.27,67.57,50.75,32.04,33.2,55.81,71.89,73.67,114.26,7.32,17.38,13.93,35.04,18.37,53.43-9.97,2.43-9.93,2.36-12.72-6.98-13.67-45.93-35.09-87.9-64.03-126.14-25.73-34.01-57.25-61.01-95.27-80.35-5.32-2.71-10.71-5.35-17.6-7.15,5.2-1.91,9.78-1.74,14.03-2.95.52-.04,1.05-.08,1.57-.12Z"/>
      <path class="cls-6" d="m750.93,104.71c-6.11-1.09-10.92-4.95-16.16-7.79-13.25-7.2-26.9-13.5-40.75-19.4-18.96-8.07-38.86-13.3-58.53-19.26-.88-.27-1.75-.65-2.57.15-7.03-7.08-14.19-14.01-22.01-20.24-.49-.39-1.82-.45-.97-1.53.28-.36,1.2-.21,1.83-.3,12.13,4.11,24.54,7.31,36.56,11.79,35.78,13.33,68.94,31.43,99.7,54,1.04.76,1.94,1.71,2.9,2.58Z"/>
      <path class="cls-11" d="m901,789.35c13.04-6.47,26.08-12.93,39.1-19.43,1.86-.93,3.63-2.03,5.46-3.01.75-.4,1.68-1.2,1.86.52,0,0,.02-.01.02-.01-.68.66-.82,1.51-.89,2.4,0,0,.06-.11.06-.11-.6.4-.77,1.01-.8,1.68,0,0,.03-.07.03-.07-.97,1.15-1.44,2.51-1.62,3.98,0,0,.05-.06.05-.06-.27.57-.54,1.14-.81,1.7l-.12.16s.16.12.16.12c-.26.42-.52.84-.78,1.26l-.13.15s.12.16.12.16c-.25.41-.49.83-.74,1.24l-.14.15s.09.19.09.19c-.24.41-.47.81-.71,1.22-.17.09-.21.21-.12.38-3.11,5.91-6.23,11.81-9.34,17.71l-.13.15s.09.18.09.18c-.27.41-.55.82-.82,1.22,0,0,.02-.06.02-.06-.62.37-.81.96-.86,1.63,0,0,.04-.09.04-.09-.85.6-1.24,1.49-1.56,2.43,0,0,.05-.03.05-.03-.3.27-.6.55-.9.82,0,0-.03-.13-.03-.13-9.24,4.39-18.46,8.82-27.74,13.13-2.92,1.36-5.99,2.39-8.99,3.57-.15-1.51.59-2.76,1.15-4.08,3.52-8.26,7.37-16.38,9.77-25.08,0,0-.01.04-.01.04.07-.09.21-.2.19-.28-.04-.21-.14-.42-.21-.62l-.82-3.16Z"/>
      <path class="cls-3" d="m931.75,799.7c3.11-5.9,6.23-11.81,9.34-17.71-.8,5.56-2.16,10.93-5.87,15.37-.91,1.08-1.91,2.16-3.47,2.34Z"/>
      <path class="cls-3" d="m918.29,312.74c-3.18-5.61-6.35-11.23-9.53-16.84,4.69.24,4.89,4.87,6.96,7.51,1.96,2.52,2.45,6.01,2.57,9.33Z"/>
      <path class="cls-3" d="m403.04,22.24c-4.71,1.2-9.41,2.39-14.12,3.58-5.39,1.16-10.79,2.33-16.18,3.49,5.81-3.25,12.43-3.78,18.7-5.41,3.75-.97,7.59-2.1,11.59-1.67Z"/>
      <path class="cls-3" d="m874.3,247.86c-1.84-3.41-3.68-6.83-5.52-10.24,5.67,2.25,6.21,3.24,5.52,10.24Z"/>
      <path class="cls-3" d="m82.91,305.84c-1.07,4.48-2.18,8.96-4.1,13.17.34-4.71,1.22-9.25,4.1-13.17Z"/>
      <path class="cls-3" d="m89.11,287.93c-.77,3.02-1.62,6-3.19,8.73.14-3.25.48-6.42,3.19-8.73Z"/>
      <path class="cls-3" d="m908.81,295.92c-1.43-1.33-2.43-2.95-3.23-4.7,2.99.25,3.2,2.41,3.23,4.7Z"/>
      <path class="cls-3" d="m355.96,34.04c-1.5,1.24-3.29,1.58-5.16,1.7,1.41-1.5,3.25-1.7,5.16-1.7Z"/>
      <path class="cls-3" d="m342.19,38.74c-1.17.95-2.53,1.41-4.01,1.53.91-1.63,2.45-1.62,4.01-1.53Z"/>
      <path class="cls-3" d="m944.22,775.3c.18-1.47.65-2.83,1.62-3.98.07,1.58.12,3.15-1.62,3.98Z"/>
      <path class="cls-3" d="m96.19,270.64c-.14,1.26-.54,2.41-1.53,3.27-.27-1.45.07-2.63,1.53-3.27Z"/>
      <path class="cls-3" d="m876.62,252.16c-.81-.76-1.35-1.66-1.53-2.76,1.53.36,1.57,1.54,1.53,2.76Z"/>
      <path class="cls-3" d="m928.54,805.16c.32-.94.71-1.83,1.56-2.43.07,1.19-.17,2.18-1.56,2.43Z"/>
      <path class="cls-3" d="m862.51,226.64c-.81-.62-1.3-1.44-1.51-2.43,1.32.3,1.55,1.28,1.51,2.43Z"/>
      <path class="cls-3" d="m94.71,273.79c.02.93-.17,1.78-.93,2.41-.08-.95.04-1.83.93-2.41Z"/>
      <path class="cls-3" d="m946.55,769.81c.07-.88.21-1.74.89-2.4.02.91-.11,1.78-.89,2.4Z"/>
      <path class="cls-3" d="m85.19,298.92c0,.91-.11,1.79-.85,2.44-.08-.94.04-1.81.85-2.44Z"/>
      <path class="cls-3" d="m85.99,296.56c-.01.91-.09,1.8-.85,2.45-.08-.94.03-1.82.85-2.45Z"/>
      <path class="cls-3" d="m359.02,33.25c-.82.74-1.83.85-2.87.89.78-.84,1.81-.93,2.87-.89Z"/>
      <path class="cls-3" d="m366.93,30.88c-.83.75-1.86.87-2.91.9.8-.85,1.84-.92,2.91-.9Z"/>
      <path class="cls-3" d="m369.72,30.1c-.68.72-1.57.79-2.49.79.68-.73,1.56-.85,2.49-.79Z"/>
      <path class="cls-3" d="m372.42,29.32c-.79.75-1.76.87-2.78.83.76-.84,1.76-.85,2.78-.83Z"/>
      <path class="cls-3" d="m92.97,278.43c-.02.68-.16,1.3-.78,1.71.26-.57.52-1.14.78-1.71Z"/>
      <path class="cls-3" d="m83.68,303.47c-.04.84-.15,1.66-.94,2.17.31-.73.63-1.45.94-2.17Z"/>
      <path class="cls-3" d="m84.4,301.27c0,.8-.11,1.55-.85,2.04.04-.78.23-1.5.85-2.04Z"/>
      <path class="cls-3" d="m93.82,276.11c0,.79-.19,1.5-.85,2.02.04-.77.23-1.49.85-2.02Z"/>
      <path class="cls-3" d="m96.95,268.96c-.05.69-.2,1.33-.83,1.75.28-.58.55-1.17.83-1.75Z"/>
      <path class="cls-3" d="m865.69,232.1c-.28-.53-.57-1.06-.85-1.58.28.53.57,1.06.85,1.58Z"/>
      <path class="cls-3" d="m92.24,280.04c-.01.79-.19,1.51-.85,2.02.28-.67.57-1.35.85-2.02Z"/>
      <path class="cls-3" d="m864.87,230.58c-.6-.37-.85-.94-.88-1.63.29.54.59,1.08.88,1.63Z"/>
      <path class="cls-3" d="m91.39,282.36c-.03.67-.18,1.29-.78,1.7.26-.57.52-1.14.78-1.7Z"/>
      <path class="cls-3" d="m363.8,31.66c-.52.71-1.28.77-2.06.78.69-.26,1.37-.52,2.06-.78Z"/>
      <path class="cls-3" d="m361.42,32.46c-.53.63-1.25.74-2.02.73.67-.24,1.34-.49,2.02-.73Z"/>
      <path class="cls-3" d="m875.11,249.42c-.28-.53-.55-1.07-.83-1.6.28.53.55,1.07.83,1.6Z"/>
      <path class="cls-3" d="m863.36,228.1c-.29-.5-.59-1.01-.88-1.51.29.5.59,1.01.88,1.51Z"/>
      <path class="cls-3" d="m945.81,771.38c.03-.67.19-1.28.8-1.68-.27.56-.53,1.12-.8,1.68Z"/>
      <path class="cls-3" d="m350.9,35.66c-.41.65-1.07.75-1.76.76.59-.25,1.17-.51,1.76-.76Z"/>
      <path class="cls-3" d="m348.86,36.38c-.53.68-1.29.8-2.08.82.69-.27,1.39-.54,2.08-.82Z"/>
      <path class="cls-3" d="m943.46,776.94c.27-.57.54-1.14.81-1.7-.27.57-.54,1.14-.81,1.7Z"/>
      <path class="cls-3" d="m346.5,37.17c-.54.69-1.29.83-2.1.85.7-.28,1.4-.56,2.1-.85Z"/>
      <path class="cls-3" d="m344.15,37.95c-.51.68-1.24.82-2.02.81.67-.27,1.35-.54,2.02-.81Z"/>
      <path class="cls-3" d="m868.81,237.64c-.28-.54-.56-1.08-.84-1.62.28.54.56,1.08.84,1.62Z"/>
      <path class="cls-3" d="m90.66,283.97c-.01.78-.18,1.49-.83,2.01.28-.67.55-1.34.83-2.01Z"/>
      <path class="cls-3" d="m904.24,289.43c-.38-.49-.76-.98-1.14-1.46.38.49.76.98,1.14,1.46Z"/>
      <path class="cls-3" d="m860.99,224.2l-.92-1.53c.31.51.62,1.02.92,1.53Z"/>
      <path class="cls-3" d="m89.8,286.3c-.25.57-.5,1.14-.75,1.7.25-.57.5-1.14.75-1.7Z"/>
      <path class="cls-3" d="m930.05,802.82c.05-.67.24-1.26.86-1.63-.29.54-.57,1.09-.86,1.63Z"/>
      <path class="cls-3" d="m337.79,40.33c-.68.28-1.36.56-2.05.84.68-.28,1.36-.56,2.05-.84Z"/>
      <path class="cls-3" d="m335.49,41.07c-.4.22-.81.44-1.21.66.4-.22.81-.44,1.21-.66Z"/>
      <path class="cls-3" d="m930.88,801.25c.27-.41.55-.82.82-1.22-.27.41-.55.82-.82,1.22Z"/>
      <path class="cls-6" d="m751.9,105.43c-.32-.24-.65-.48-.97-.72.32.24.65.48.97.72Z"/>
      <path class="cls-3" d="m927.69,805.95c.3-.27.6-.55.9-.82-.3.27-.6.55-.9.82Z"/>
      <path class="cls-3" d="m868.04,236.09c-.2-.28-.41-.55-.61-.83.2.28.41.55.61.83Z"/>
      <path class="cls-3" d="m941.21,781.6c.24-.41.47-.81.71-1.22-.24.41-.47.81-.71,1.22Z"/>
      <path class="cls-3" d="m941.98,780.04c.25-.41.49-.83.74-1.24-.25.41-.49.83-.74,1.24Z"/>
      <path class="cls-3" d="m942.72,778.49c.26-.42.52-.84.78-1.26-.26.42-.52.84-.78,1.26Z"/>
      <path class="cls-3" d="m904.99,290.34c-.24-.29-.49-.59-.73-.88.24.29.49.59.73.88Z"/>
      <path class="cls-3" d="m866.45,233.3l-.77-1.21.77,1.21Z"/>
      <path class="cls-3" d="m864.1,229.04c-.24-.3-.48-.6-.71-.9.24.3.48.6.71.9Z"/>
      <path class="cls-3" d="m905.73,291.23c-.27-.32-.53-.64-.8-.95.27.32.53.64.8.95Z"/>
      <path class="cls-3" d="m876.64,259.86c-.33-.3-.66-.61-.99-.91.33.3.66.61.99.91Z"/>
      <path class="cls-3" d="m98.35,265.9c-.23.41-.47.82-.7,1.23.23-.41.47-.82.7-1.23Z"/>
      <path class="cls-3" d="m97.66,267.43c-.27.42-.54.84-.8,1.27.27-.42.54-.84.8-1.27Z"/>
      <path class="cls-3" d="m867.21,234.77c-.22-.37-.43-.73-.65-1.1.22.37.43.73.65,1.1Z"/>
      <path class="cls-9" d="m391.73,27.49c1.03.03,2.05.05,3.08.08,4.25,1.9,8.72,2.61,13.35,2.49,13.61,3.31,26.64,8.23,39.32,14.12.68.59,1.27,1.33,2.04,1.76,9.16,5.11,17.81,10.98,26.31,17.11,20.41,14.71,38.34,31.94,53.75,51.83,14.85,19.17,26.25,40.35,36.16,62.37,4.51,10.02,8.45,20.32,11.23,30.99,2.01,7.71,3.88,15.47,5.81,23.2-10.47,1.53-20.97,2.94-31.42,4.6-59.94,9.51-118.35,24.41-173.57,50.18-31.49,14.7-60.06,33.51-83.29,59.77-11.38,12.86-20.32,27.23-27.43,42.8-1.79-.34-2.96-1.6-4.15-2.82-13.72-14.08-28.34-27.12-44.59-38.23-18.25-12.48-38.27-20.88-59.73-26.08-10.33-2.5-20.85-3.57-31.37-4.5-3.69-.33-3.53-1.78-2.83-4.5,5.48-21.33,12.39-42.15,21.37-62.29,10.57-23.71,22.42-46.73,37.08-68.17,11.29-16.51,23.62-32.22,37.1-47.08,22.56-24.88,48.05-46.14,76.25-64.29,25.85-16.65,52.92-30.77,82.19-40.43,4.33-1.43,8.68-2.96,13.35-2.92Zm-126.44,306.81c25.28,1.18,51.66-20.97,56.6-44.71,2.83-13.6-6.27-22.46-19.51-18.39-3.13.96-3.69-.15-3.5-2.85.38-5.29-.35-10.37-2.29-15.37-4.97-12.85-20.15-20.91-33.48-17.87-16.93,3.86-26.99,20.69-24.12,35.26.27,1.37.74,3.17-.4,4.13-1.32,1.12-2.62-.49-3.89-.97-4.74-1.8-9.5-2.54-13.78.83-5.92,4.64-7.6,10.95-6.57,18.22,3.17,22.46,28.1,43.07,50.94,41.74Zm-116.31-40.05c0,.26-.03.53,0,.79.28,2.49-.63,6.1,2.67,6.57,3.01.43,3.38-3.11,4.13-5.37,2.44-7.33,4.43-14.81,7.14-22.04,12.3-32.84,29.18-63.17,50.57-90.98,1.22-1.59,3.21-3.27,1.43-5.5-1.63-2.03-3.89-1.1-5.83-.42-5.83,2.05-10.51,5.8-14.6,10.32-14.69,16.24-25.17,35.01-33.1,55.28-6.47,16.54-11.19,33.52-12.4,51.34ZM406.7,61.6c-3.75.46-7.91.92-12.05,1.48-21.78,2.98-42.82,8.62-62.92,17.59-3.12,1.39-6.19,2.93-8.33,5.72-1.7,2.21-2.48,4.75-.96,7.31,1.52,2.56,4.06,3.1,6.86,2.63,3-.51,5.77-1.71,8.52-2.93,22.85-10.2,46.1-19.32,70.26-25.98,2.04-.56,5.65-.56,5.14-3.6-.47-2.78-3.81-1.92-6.5-2.2Zm-106.75,49.05c-.1-3.58-3.28-6.36-7.16-6.27-4.36.11-8.62,4.36-8.63,8.62-.01,3.64,3.15,6.61,6.91,6.48,4.58-.15,9-4.54,8.88-8.83Z"/>
      <path class="cls-9" d="m868.95,733.15c5.99-1.81,11.98-3.62,17.96-5.43.9,10.81,1.64,21.61,1.68,32.48.01,3.77-1.17,5.44-4.78,6.7-27.74,9.71-56.23,16.44-85.09,21.72-18.5,3.38-36.96,7.03-55.72,8.85-8.72.85-17.4,2.14-26.1,3.22,8.4.73,16.69-.31,25.01-.9,19.03-1.34,37.95-3.81,56.78-6.67,34.34-5.22,67.96-13.51,100.63-25.46,13.67-5,26.51-11.77,39.49-18.27,3.32,1.29,6.07,3.36,8.6,5.87,2.26,2.24,2.07,3.63-.63,5.34-8.85,5.61-18.24,10.2-27.67,14.7-12.96,6.19-26.01,12.21-39.54,17.09-.6.21-1.27.2-1.91.3-1.6-.12-3.1.33-4.61.78-15.27,4.62-30.59,9.05-46.04,13.06-15.83,4.1-31.75,7.73-47.87,10.49-22.41,3.84-44.93,6.74-67.58,8.83-15.48,1.43-30.96,2.62-46.47,3.62-13.04.84-26.11,1.48-39.16,1.49-23.8.03-47.61,1.07-71.41-.48-2.48-.16-4.98-.22-7.34.84-25.91-1.47-51.42-5.88-76.88-10.59-41.14-7.61-81.4-18.6-120.91-32.34-.11-.04-.19-.18-.28-.27.02-1.13-.59-1.95-1.24-2.8-5.03-6.55-9.83-13.24-13.76-20.53-8.3-15.35-11.89-32.07-13.81-49.18-.37-3.34-2.06-6.9-.17-10.36.93.48,1.9.88,2.77,1.44,10.69,6.89,21.76,13.08,33.36,18.31,20.26,9.13,41.27,15.84,63.19,19.72,28.08,4.98,56.29,8.75,84.72,11.18,20.19,1.73,40.4,2.95,60.61,4.32,14.87,1.01,29.79,1.43,44.7,1.59,33.5.34,67,.45,100.46-2.07,20.33-1.53,40.64-3.15,60.9-5.52,28.9-3.38,57.41-8.74,85.52-16.17,4.31-1.14,8.99-1.77,12.6-4.9Zm-243.08,71.55c13.24-1.73,27.12-.85,40.97-1.67,17.47-1.04,34.92-2.17,52.33-4.06,19.09-2.08,38.17-4.1,57.05-7.72,3.46-.66,7.03-.89,10.3-2.33,1.43-.63,3.05-1.49,2.56-3.43-.46-1.83-2.25-1.62-3.63-1.51-6.11.5-12.25.9-18.32,1.73-18.77,2.57-37.68,3.72-56.54,5.2-15.49,1.21-31.04,2.21-46.57,2.32-30.48.22-60.97.74-91.44-1.24-19.16-1.24-38.29-2.6-57.37-4.84-17.39-2.04-34.74-4.38-51.95-7.55-36.45-6.72-72.36-15.68-107.77-26.65-3.24-1-6.57-1.88-9.98-1.95-2.49-.06-4.83.7-5.54,3.43-.69,2.64,1.13,4.16,3.18,5.25,1.49.8,3.1,1.41,4.7,1.95,12.16,4.1,24.53,7.51,36.86,11.04,41.45,11.85,83.52,20.49,126.35,25.62,22.46,2.69,45,4.13,67.55,5.19,15.54.73,31.14-.15,47.27,1.23Z"/>
      <path class="cls-11" d="m320.11,705.25c-1.89,3.46-.2,7.02.17,10.36,1.91,17.11,5.51,33.82,13.81,49.18,3.94,7.28,8.73,13.98,13.76,20.53.65.85,1.26,1.67,1.24,2.8-38.35-13.24-76.07-27.93-111.26-48.42-2.65-1.54-5.2-2.03-8.17-1.84-12.56.81-23.98,4.88-34.52,11.64-5.27-7.81-9.94-15.98-13.77-24.58-14.69-33.01-19.78-68-20.76-103.74-.2-7.13.76-14.3,1.18-21.45,0,0,.07.09.07.09.32-.23.64-.47.96-.71,2.1-1.12,4.2-2.24,6.29-3.35.02.65.04,1.31.05,1.96.08,7.4,1.15,8.11,8.03,5.21,1.07-.45,2.11-1.06,3.06-1.72,18.41-12.79,30.5-30.25,37.01-51.49,1.3-4.24,3.2-8.97,1.21-13.75-.04-.18.02-.33.17-.43.56-.48.75-1.11.69-1.82,6.7-18.2,9.9-37.05,10.47-56.39,1.03-2.07,1.03-4.15,0-6.22-.17-3.65-.34-7.31-.5-10.96,1.16.56,1.13,1.62,1.18,2.68.03.76-.15,1.7.68,2.09,1.07.49,1.6-.56,2.27-1.11.5-.41.88-1.03,1.44-1.31,3.5-1.82,7.09-4.92,11.06-3.28,3.03,1.25,3.53,1.09,3.54-1.94,0-.67.66-1.34,1.02-2.01-.16,2.14-.33,4.29-.49,6.43-1.04,1.6-.64,3.34-.46,5.05-.06,1.71-.11,3.42-.17,5.12-.84.98-.8,2.17-.8,3.35,0,13.21,0,26.42.01,39.63,0,1.18-.03,2.37.74,3.38.45,6.91.88,13.82,1.34,20.73.1,1.49-.07,2.81-1.23,3.94-6.62,6.52-8.54,14.8-8.54,23.67,0,15.1,3.8,29.47,8.79,43.58.78,2.21,1.48,4.45,2.21,6.67.21.42.41.84.62,1.26.15.1.21.24.17.42-.35,1.85.1,3.6.54,5.4,5.03,20.61,16.98,37.1,31.08,52.29,10.55,11.37,22.95,20.51,35.81,29.06Z"/>
      <path class="cls-4" d="m641.13,228.46c-4.44-18.39-11.05-36.05-18.37-53.43-17.86-42.38-41.63-81.07-73.67-114.26-19.76-20.48-42.09-37.75-67.57-50.75-3.91-2-8.29-2.98-11.88-5.64,11.32-1.08,22.66-1.98,34.04-1.7,13.54.34,27.01,1.68,40.26,4.56,7.08,1.54,13.04,5.68,19.14,9.31,46.66,27.76,81.92,66.68,109.85,112.7,16.97,27.96,30.31,57.58,40.05,88.81.89,2.85,1.6,5.75,2.49,8.96-1.3,0-2.31.04-3.32,0-22.93-.99-45.81.1-68.69,1.45-.78.05-1.56,0-2.34,0Z"/>
      <path class="cls-12" d="m901.85,793.37c-2.4,8.69-6.26,16.82-9.77,25.08-.56,1.32-1.3,2.57-1.15,4.08-8.29,4.34-17.21,7.04-25.97,10.18-26.47,9.5-53.66,16.21-81.27,21.44-11.83,2.24-23.72,4.03-35.58,6-9.37,1.56-18.81,2.46-28.19,3.84-7.13,1.05-14.48.6-21.61,1.68-6.72,1.01-13.48.18-20.19,1.44-4.17.78-8.6.19-12.91.21-3.14.07-6.27.15-9.41.22-3.08.13-6.16.27-9.24.4-2.7-.41-5.39-.25-8.07.12-14.78,0-29.56.2-44.33-.06-9.33-.16-18.64-1.05-27.96-1.53-6.33-.33-12.68-.41-19.01-.82-4.36-.28-8.69-.98-13.04-1.42-4.11-.42-8.23-.74-12.34-1.15-5.71-.58-11.43-1.1-17.12-1.83-6.6-.84-13.14-2.25-19.76-2.73-5.88-.42-11.58-1.79-17.37-2.59-8.93-1.23-17.73-3.38-26.56-5.23-9.1-1.9-18.21-3.78-27.26-5.88-16.4-3.8-32.59-8.45-48.75-13.16-1.35-.39-2.65-.97-3.98-1.46.05-1.96-.31-3.85-.7-5.77-1.47-7.11-2.65-14.29-4.24-21.37-.76-3.4.59-3.14,2.93-2.37,2.45.81,4.81,2,7.46,2.16,1.87,1.6,4.26,1.97,6.48,2.67,28.36,8.96,57.32,15.4,86.48,21.14,32.75,6.46,65.79,10.45,99.03,12.93,16.41,1.23,32.88,2.14,49.33,2.36,32.96.44,65.93.66,98.85-2.05,19.15-1.58,38.21-3.95,57.2-6.67,24.21-3.48,48.26-7.99,71.79-14.86,21.38-6.24,42.5-13.19,62.1-24.04,1.29-.71,2.63-1.15,4.13-.97Z"/>
      <path class="cls-6" d="m161.79,599.72c-.42,7.15-1.38,14.32-1.18,21.45.98,35.74,6.07,70.73,20.76,103.74,3.83,8.61,8.5,16.77,13.77,24.58-7.37,6.28-14.26,13.09-21.14,19.9-3.67,3.64-8.35,4.06-13.03,4.61-3.76.45-8.18,2.12-11.12.73-2.9-1.38-1.92-6.54-2.87-9.98-4.47-16.23-10.87-31.54-19.68-45.99-11.14-18.28-26.13-32.33-44.32-43.21-2.14-1.28-3.16-3.03-3.37-5.34-.88-9.68-1.79-19.36-2.48-29.06-.38-5.33-.28-10.67-.76-15.99-.07-2.62-.14-5.24-.2-7.87-.09-5.63-.18-11.26-.29-16.89-.04-2.27.75-2.57,2.79-1.6,26.27,12.41,52.88,13.27,79.8,2.14,1.08-.45,2.2-.82,3.3-1.22Z"/>
      <path class="cls-9" d="m661.14,91.53c1.59-1.28,3.04-.18,4.37.43,22.6,10.48,43.87,23.15,64.03,37.86,21.1,15.4,40.55,32.6,58.31,51.66,15.6,16.75,29.84,34.63,40.85,54.85.37.67.53,1.45.79,2.19-15.41-3.06-30.82-6.08-46.47-7.64-9.35-.93-18.67-2.64-28.14-1.85-1.31-.07-2.61-.15-3.92-.22-4.91-1.96-9.97-.32-14.95-.58-.52-.07-1.04-.13-1.57-.2-.18-.18-.38-.54-.52-.52-6.14.98-7.15-3.11-8.59-7.78-13.73-44.49-33.8-85.88-61.14-123.67-1.07-1.48-2.04-3.03-3.05-4.54Z"/>
      <path class="cls-12" d="m192.35,452.77c4.25,30.56,1.11,59.96-13.8,87.5-2.2-.06-3.95-1.24-5.75-2.31-9.77-5.79-16.3-14.43-21.7-24.2-2.22-4.02-2.99-8.16-2.27-12.46,1.74-10.38,1.82-20.84,1.38-31.27-.66-15.86-5.78-30.2-16.29-42.31-1.82-2.09-3.41-4.72-6.52-5.36-4.01-5.33-8.06-10.63-13.24-14.92-19-15.73-42.09-17.77-63.64-5.56-5.2,2.95-10.35,5.98-16.13,9.33,2.33-6.04,5.55-10.88,8.86-15.58,5.34-7.56,11.58-14.39,19.07-19.88,12.57-9.22,26.38-15.2,42.2-16.36,26.45-1.93,45.77,10.65,62.05,29.74.24.28.32.7.47,1.06-1.13.95-2.49.58-3.77.68-9.55.69-13.17,6.76-9.13,15.33,1.62,3.43,3.29,6.84,4.89,10.28,4.78,10.29,7.15,21.3,9.91,32.22,1.95,7.71,6.9,10.27,14.56,8.23,3.23-.86,5.82-2.94,8.84-4.16Z"/>
      <path class="cls-14" d="m562.88,936.32c-12.83.79-25.66.26-38.43-.82-26.3-2.24-52.1-7.15-77.16-15.56-21.09-7.08-41.09-16.42-58.65-30.31-3.9-3.09-8.69-6.07-8.71-12.19-.02-5.2,3.01-7.74,8.08-6.3,5.27,1.49,10.45,3.33,15.63,5.11,38.13,13.11,77.25,21.9,117.17,27.33,19.46,2.64,39,4.31,58.59,5.47-1.28,2.1-2.57,4.2-3.85,6.31-4.24,6.98-9.31,13.46-12.69,20.96Z"/>
      <path class="cls-7" d="m445.91,997.9c-4.13-.17-8.01-1.41-11.95-2.57-16.51-4.87-32.72-10.57-48.61-17.18-20.36-8.46-39.99-18.34-58.72-30-11.21-6.98-22.18-14.33-32.48-22.55-6.31-5.04-12.7-10.04-18.42-15.87-3.51-3.58-7.98-6.26-9.72-11.27-2.16-6.25-.68-15.35,8.34-15.95,4.59-.31,8.46.64,12.07,4.05,5.9,5.55,12.06,10.86,18.78,15.47,9.98,6.84,19.63,14.2,29.89,20.58,10.35,6.43,21.14,12.2,31.98,17.78,27.13,13.96,55.44,24.89,85.07,32.31.36,1.59-.07,3.08-.5,4.59-1.93,6.86-3.83,13.74-5.74,20.61Z"/>
      <path class="cls-6" d="m303.54,810.02c-16.62-5.7-32.51-13.05-48.01-21.3-5.91-3.14-11.77-6.38-17.66-9.57-1.57-1-3.26-.65-4.93-.4-8.23.95-16.45,1.87-24.67,2.87-6.45.79-10.1,5.62-13.99,10-6.33,7.13-12.27,14.57-17.98,22.2-.52.7-.98,1.66-2.16,1.3-11.96-3.66-24.43-5.55-36.24-10.44,5.42-5.96,7.35-13.44,9.19-20.92.62-2.52,1.62-3.87,4.41-3.87,2.34,0,4.67-.68,7.01-.78,9.95-.44,17.99-4.43,24.71-11.87,5.87-6.49,12.23-12.57,19.97-16.98,8.49-4.84,17.71-6.99,27.34-7.75,1.91-.15,3.63.32,5.24,1.29,16.63,10.01,34.09,18.37,51.95,25.93.35.15.63.44.94.67,3.28,13.83,9.02,26.74,14.85,39.61Z"/>
      <path class="cls-8" d="m95.69,456.11c6.4,19.98-1.74,48.44-17.64,61.77-17.61,14.77-43.06,9.5-55.08-11.57-6.17-10.82-8.61-22.35-8.62-34.73-.02-15.01,4.38-28.5,13.15-40.42,3.29-4.47,7.41-8.63,12.9-10.81-.68,4.13-1.19,8.27-1.06,12.48.41,13.2,6.19,23.14,18.06,29.09,12.25,6.14,23.84,4.38,34.63-3.78,1.12-.85,1.99-2.16,3.66-2.03Z"/>
      <path class="cls-6" d="m250.48,455.25c-.36.67-1.01,1.34-1.02,2.01,0,3.03-.51,3.19-3.54,1.94-3.97-1.64-7.55,1.47-11.06,3.28-.56.29-.93.9-1.44,1.31-.67.55-1.19,1.6-2.27,1.11-.83-.38-.65-1.33-.68-2.09-.04-1.06-.02-2.12-1.18-2.68-1.35-12.75-3.02-25.44-7.01-37.71-9.52-29.27-25.99-53.32-52.99-69.04-19.59-11.41-40.94-15.45-63.49-12.99-8.5.93-16.66,4.07-25.32,4.04-9.2-.03-7.33.34-5.78-7.2.15-.75.5-1.46.76-2.19,4.4-1.23,8.77-2.58,13.2-3.66,36.13-8.77,70.55-4.45,103.03,13.82,28.65,16.11,48.95,39.92,63.15,69.26.55,1.13.62,2.63,2.14,3.11-2.98,12.42-4.96,25.01-6.52,37.67Z"/>
      <path class="cls-6" d="m320.11,705.25c-12.86-8.55-25.26-17.69-35.81-29.06-14.1-15.19-26.05-31.69-31.08-52.29-.44-1.8-.89-3.54-.54-5.4,5.37,10.93,11.16,21.6,18.33,31.52,23.7,32.82,55.71,54.46,92.72,69.55,25.07,10.22,51.43,15.12,77.94,19.61,49.27,8.34,98.91,12.98,148.81,15.17,42.83,1.88,85.66,1.91,128.46-.49,49.76-2.79,99.07-9.25,147.7-20.45.75-.17,1.54-.17,2.32-.25-3.61,3.13-8.28,3.76-12.6,4.9-28.12,7.42-56.63,12.79-85.52,16.17-20.26,2.37-40.57,3.98-60.9,5.52-33.46,2.52-66.96,2.41-100.46,2.07-14.91-.15-29.83-.58-44.7-1.59-20.21-1.37-40.42-2.59-60.61-4.32-28.43-2.43-56.64-6.21-84.72-11.18-21.91-3.88-42.92-10.59-63.19-19.72-11.6-5.23-22.67-11.42-33.36-18.31-.87-.56-1.85-.96-2.77-1.44Z"/>
      <path class="cls-11" d="m127.42,422.37c3.11.64,4.7,3.26,6.52,5.36,10.51,12.11,15.62,26.45,16.29,42.31.44,10.43.36,20.89-1.38,31.27-.72,4.3.05,8.44,2.27,12.46,5.4,9.77,11.93,18.4,21.7,24.2,1.8,1.07,3.55,2.25,5.75,2.31-11.48,22.5-28.48,38.46-53.39,45.02-1.5.4-3.09.47-4.64.69.57-2.38-.14-4.59-.9-6.79-4.37-12.69-6.55-25.78-7.2-39.15,32.71-29.14,34.48-84.22,15.78-115.89-.33-.55-.53-1.18-.79-1.78Z"/>
      <path class="cls-7" d="m727.01,958.75c-.71-8.17-3.07-15.56-4.49-23.13-.42-2.27.14-3.12,2.2-4.04,30.9-13.7,59.09-31.6,83.46-55.12,6.3-6.08,15.75-4.58,18.41,3.44,1.75,5.28.7,10.2-3.34,14.44-14.74,15.5-31.36,28.64-49.43,40.02-13.42,8.45-27.29,16.04-41.79,22.45-1.52.67-3.1,1.2-5.02,1.94Z"/>
      <path class="cls-11" d="m938.78,749.4c-12.97,6.5-25.82,13.26-39.49,18.27-32.67,11.95-66.29,20.24-100.63,25.46-18.83,2.86-37.74,5.33-56.78,6.67-8.32.59-16.6,1.62-25.01.9,8.7-1.09,17.38-2.37,26.1-3.22,18.76-1.83,37.22-5.47,55.72-8.85,28.86-5.27,57.35-12,85.09-21.72,3.61-1.27,4.8-2.93,4.78-6.7-.04-10.86-.78-21.67-1.68-32.48,7.46-2.83,14.91-5.69,22.08-9.23,5.71-2.82,11.14-6.05,16.18-9.96.79-.62,1.83-.92,2.89-1.44,1.22,3.38,1.13,6.74,1.34,10.05.07,3.15.13,6.29.2,9.44,0,2.88.02,5.76.02,8.64-.03,3.42-1.06,6.89.55,10.22,2.73,1.63,6.06,1.94,8.61,3.96Z"/>
      <path class="cls-11" d="m255.35,462c.4.66.65,1.56,1.24,1.95,7.66,5.19,9.32,13.13,10.07,21.55,2.08,23.4,2.47,46.96,6.37,70.18,2.65,15.74,6.15,31.31,11.23,46.49,3.16,9.43,6.39,18.85,8.67,28.54.65,2.75,1.85,6.24-2.85,7.06-3.97-4.05-6.65-9-9.57-13.77-12.55-20.53-18.99-43.12-22.51-66.73-1.58-10.61-2.35-21.28-3.13-31.96.22-2.36.19-4.72-.23-7.07-.17-4.43-.34-8.87-.51-13.3.36-.56.35-1.12-.02-1.67-.12-12.36.14-24.7.78-37.04.07-1.41.31-2.82.47-4.22Z"/>
      <path class="cls-6" d="m112.43,540.05c.65,13.37,2.84,26.46,7.2,39.15.76,2.2,1.47,4.41.9,6.79-1.41.9-3.03.73-4.57.86-27.85,2.27-49.55-9.14-67.31-29.84-5.47-6.37-9.9-13.3-13.97-20.55-.33-.6-.67-1.11-.14-2.03,1.47-.1,2.32,1.23,3.36,2,10.49,7.7,21.81,13.36,34.92,15.01,13.52,1.71,25.66-1.59,36.67-9.47.95-.68,1.96-1.29,2.94-1.93Z"/>
      <path class="cls-7" d="m634.01,958.62c-4.87,7.7-5.35,15.39-2.87,23.39.43,1.4.56,2.08-1.62,2.33-22.07,2.54-44.19,2.21-66.33,1.53-3.64-.11-7.16-.29-10.69-1.24-5.84-1.59-8.74-6.52-8.25-14.6.35-5.87,3.58-9.23,9.81-9.6,3.64-.21,7.31.28,10.97.4,22.78.77,45.53.28,68.98-2.2Z"/>
      <path class="cls-11" d="m303.54,810.02c-5.84-12.87-11.57-25.78-14.85-39.61,13.37,5.18,26.72,10.44,40.13,15.51,7.93,3,16.01,5.6,23.93,8.6,4.59,1.74,9.02,3.88,13.74,5.26.69,1.04.6,2.06-.05,3.07-2.65-.16-5-1.35-7.46-2.16-2.34-.78-3.69-1.04-2.93,2.37,1.58,7.09,2.77,14.26,4.24,21.37.4,1.92.76,3.81.7,5.77-8.81-2.82-17.63-5.54-26.36-8.64-10.43-3.7-20.95-7.12-31.1-11.56Z"/>
      <path class="cls-7" d="m555.17,1013.65c-8.17-.02-16.31-.36-24.47-.82-6.67-.37-13.24-1.58-19.93-1.83-5.91-.22-11.82-1.5-17.65-2.68-4.94-.99-10.03-1.27-14.83-2.97.14-.88.24-1.77.42-2.64,1.54-7.45,4.56-14.52,5.71-22.07,7.62.06,14.92,2.26,22.4,3.3,14.49,2.01,29.01,3.8,43.63,4.33,7.47.27,10.9,3.36,12.17,9.21,1.32,6.05,1.16,11.66-6.08,15.71-.46.15-.91.3-1.37.45Z"/>
      <path class="cls-4" d="m107,474.99c-.11-11.69-.91-23.27-5.55-34.23-4.8-11.33-11.55-21.06-22.12-27.8-5.5-3.51-11.54-5.4-18.3-6.29,17.14-8.07,38.83-3.29,52.71,11.56,11.58,12.38,16.6,27.61,18.43,44.08.85,7.66,1.13,15.36-.69,22.96-7.59-4.78-15.8-8.09-24.47-10.28Z"/>
      <path class="cls-4" d="m95.69,456.11c-1.67-.13-2.54,1.18-3.66,2.03-10.79,8.16-22.38,9.92-34.63,3.78-11.87-5.95-17.65-15.89-18.06-29.09-.13-4.21.37-8.35,1.06-12.48,12.86-6.32,25.09-4.65,36.45,3.48,11.01,7.88,16.78,19.06,18.85,32.28Z"/>
      <path class="cls-1" d="m562.88,936.32c3.38-7.5,8.45-13.98,12.69-20.96,1.28-2.11,2.56-4.21,3.85-6.31,9.82-.67,19.59.65,29.4.78,17.55.24,35-1.46,52.52-1.68,1.97-.03,4.58-.78,5.31,2.02.74,2.86-1.46,4.27-3.6,5.38-12.17,6.32-25.18,10.24-38.45,13.39-18.87,4.48-37.99,7.14-57.39,7.54-1.43.03-2.87-.11-4.31-.17Z"/>
      <path class="cls-6" d="m366.45,802.86c.64-1.02.73-2.04.05-3.07,1.36-.42,2.57.16,3.81.56,45.8,14.78,92.62,25.12,140.22,31.93,23.96,3.43,48.05,5.73,72.25,6.71,2.03.9,4.09.87,6.17.19,27.62.97,55.24,1.12,82.86-.04,42.73-1.79,85-7.09,126.82-16.11,33.65-7.26,66.06-18.28,97.62-31.91,1.55-.67,3.17-1.18,4.76-1.77.27,1.05.55,2.1.82,3.16,0,.3.01.6.02.9,0,0,.01-.04.01-.04-1.5-.19-2.84.25-4.13.97-19.6,10.86-40.73,17.81-62.1,24.04-23.53,6.87-47.57,11.38-71.79,14.86-19,2.73-38.05,5.1-57.2,6.67-32.92,2.71-65.88,2.49-98.85,2.05-16.45-.22-32.92-1.13-49.33-2.36-33.24-2.48-66.29-6.47-99.03-12.93-29.16-5.75-58.12-12.19-86.48-21.14-2.22-.7-4.62-1.07-6.48-2.67Z"/>
      <path class="cls-13" d="m192.35,452.77c-3.03,1.21-5.61,3.3-8.84,4.16-7.66,2.04-12.61-.52-14.56-8.23-2.76-10.92-5.14-21.93-9.91-32.22-1.6-3.44-3.27-6.85-4.89-10.28-4.04-8.57-.42-14.63,9.13-15.33,1.28-.09,2.64.28,3.77-.68,3.83,3.32,6.3,7.68,8.84,11.92,9.34,15.61,14.81,32.52,16.47,50.66Z"/>
      <path class="cls-6" d="m547.17,831.32c2.36-1.06,4.86-1.01,7.34-.84,23.79,1.55,47.61.51,71.41.48,13.06-.01,26.13-.66,39.16-1.49,15.5-.99,30.99-2.19,46.47-3.62,22.65-2.09,45.17-4.99,67.58-8.83,16.12-2.76,32.04-6.39,47.87-10.49,15.45-4,30.77-8.44,46.04-13.06,1.51-.46,3.01-.91,4.61-.78-.59,1.63-2.21,1.71-3.49,2.23-32.41,13.19-66.05,21.94-100.4,28.3-34.58,6.41-69.43,10.04-104.57,11.29-37.09,1.32-74.13.57-111.14-1.95-3.62-.25-7.33-.15-10.87-1.25Z"/>
      <path class="cls-11" d="m582.78,231.43c-1.93-7.73-3.8-15.49-5.81-23.2-2.78-10.67-6.72-20.97-11.23-30.99-9.91-22.01-21.31-43.2-36.16-62.37-15.41-19.88-33.34-37.12-53.75-51.83-8.5-6.13-17.15-12.01-26.31-17.11-.77-.43-1.37-1.17-2.04-1.76,9.35,2.04,17.54,6.82,25.65,11.47,17.46,10.01,32.78,22.88,46.47,37.58,15.48,16.63,28.19,35.25,38.72,55.39,8.5,16.26,15.76,33.04,21.78,50.35,3.05,8.76,5.49,17.73,8.23,26.6.54,1.74.63,3.63,1.73,5.18,0,0-.21-.01-.21-.01-.86-.24-1.67-.16-2.39.42-1.56.1-3.12.19-4.67.29Z"/>
      <path class="cls-6" d="m109.35,714.91c10.32,13.7,17.71,28.88,22.93,45.18,3.08,9.61,5.28,19.39,6.33,29.43.37,3.54-.47,6.73-2.77,9.84-2.6-2.45-2.55-5.83-3.39-8.72-5.59-19.35-13.63-37.44-25.86-53.62-6.12-8.09-13.24-15.01-21.8-20.26-4.53-2.78-6.37-6.51-6.83-11.4-.03-.3-.06-.6-.09-.9,0,0-.09.12-.09.12,1.53-1.57,3.32-1.65,5.41-1.31,8.29,1.33,15.82,4.22,22.25,9.82,1,.87,1.91,2.78,3.91,1.84Z"/>
      <path class="cls-6" d="m237.67,783.34c-8.01,11.03-16.3,20.74-24.85,30.22-.79.88-1.66,1.69-2.98,1.69-9.4,0-18.8,0-29.24,0,4.4-5.5,7.97-10.33,11.95-14.78,2.42-2.7,4.9-5.42,7.24-8.15,3.9-4.57,8.49-6.31,14.25-6.91,7.62-.79,15.16-2.35,23.63-2.07Z"/>
      <path class="cls-7" d="m107,474.99c8.67,2.2,16.88,5.5,24.47,10.28-1.36,12.27-4.68,23.74-13.38,33.04-5.21-3.35-9.06-8.18-13.47-12.4-1.09-1.04-1.81-2.64-3.67-2.62,2.88-9.25,5.13-18.63,6.04-28.3Z"/>
      <path class="cls-14" d="m445.13,945.24c-11.08-2.01-21.65-5.6-31.87-10.3-12.53-5.75-24.69-12.13-35.76-20.46-2.23-1.68-3.88-3.86-5.83-5.77-1-.98-1.4-2.64-.93-4.06.61-1.84,1.74-3.41,3.95-1.83,21.91,15.6,46.42,25.51,72,33.11,1.12.33,2.2.82,3.3,1.24-1.62,2.69-3.24,5.38-4.86,8.07Z"/>
      <path class="cls-7" d="m638.47,984.5c-3.42-6.71-4.53-13.5-.7-20.46,1.04-1.89,2.42-3.43,4.43-4.24,4.35-1.76,8.76-3.37,13.07-5.22,1.77-.76,2.22-.16,2.52,1.44,1.88,9.72,3.81,19.43,5.72,29.14-8.38,1.07-16.72.83-25.04-.64Z"/>
      <path class="cls-6" d="m218.47,535.97c1.99,4.77.09,9.51-1.21,13.75-6.51,21.24-18.6,38.69-37.01,51.49-.96.67-1.99,1.27-3.06,1.72-6.87,2.91-7.95,2.2-8.03-5.21,0-.65-.03-1.31-.05-1.96,22.8-13.63,37.6-33.94,48.24-57.73.32-.71.74-1.37,1.11-2.06Z"/>
      <path class="cls-14" d="m484.42,980.65c-1.15,7.55-4.17,14.62-5.71,22.07-.18.87-.28,1.76-.42,2.64-7.59-.8-15.09-1.95-22.21-4.88,2.39-8.24,4.78-16.48,7.17-24.72,7.14,1.27,14.33,2.33,21.17,4.9Z"/>
      <path class="cls-7" d="m668.42,983.63c-2.06-9.59-4.11-19.19-6.18-28.78-.32-1.48-.12-2.35,1.67-2.79,4.06-1,8.09-2.2,12.05-3.54,1.99-.68,2.46,0,2.82,1.79,1.99,10.01,4.47,19.92,5.83,30.05-5.31,1.49-10.71,2.58-16.18,3.28Z"/>
      <path class="cls-7" d="m707.79,971.02c-2.53-9.44-3.92-19.11-5.82-28.67-.27-1.34.25-1.83,1.42-2.25,4.16-1.52,8.3-3.11,12.41-4.75,1.29-.52,1.93-.32,2.17,1.1,1.61,9.48,4.51,18.71,5.27,28.35-5.44,1.36-10.33,4.07-15.45,6.23Z"/>
      <path class="cls-7" d="m689.57,978.99c-2.08-9.96-4.14-19.91-6.24-29.86-.44-2.09.24-3.03,2.39-3.46,2.42-.48,4.84-1.22,7.07-2.25,3.12-1.44,4.55-1.29,5.12,2.71,1.38,9.68,4.07,19.14,5.09,28.9-4.48,1.32-8.95,2.64-13.43,3.96Z"/>
      <path class="cls-4" d="m932.96,485.79c-.17-.46-.33-.91-.5-1.37-.04-1.3-.08-2.59-.11-3.89v-38.49c2.3,2.06,3.15,4.08,4.12,5.93,5.99,11.41,9.61,23.41,8.61,36.48-3.72,3.31-7.79,3.53-12.12,1.34Z"/>
      <path class="cls-1" d="m445.13,945.24c1.62-2.69,3.24-5.38,4.86-8.07,9.46,1.93,18.8,4.43,28.36,5.82,4.77.7,9.54,1.41,14.31,2.11.64.09,1.34.03,1.94.23,1.57.54,3.7.94,3.41,3.08-.24,1.77-2.2,2.13-3.77,2.15-6.66.07-13.36.43-19.98-.08-8.83-.68-17.61-2.06-26.26-4.08-1-.23-1.92-.77-2.87-1.17Z"/>
      <path class="cls-8" d="m932.96,485.79c4.33,2.19,8.4,1.97,12.12-1.34,1.19,5.22-.06,10.33-.96,15.39-1.58,8.91-4.84,17.23-9.56,25.06-1.62-.9-.77-2.46-1.31-3.53-.04-1.03-.07-2.05-.11-3.08-.23-7.1-.46-14.2-.69-21.3-.02-2.86-.03-5.72-.05-8.59.18-.87.37-1.74.55-2.62Z"/>
      <path class="cls-14" d="m100.95,503.29c1.86-.02,2.58,1.58,3.67,2.62,4.41,4.23,8.26,9.05,13.47,12.4-6.27,7.18-16.22,9.57-23.73,5.7-3.81-1.97-4.19-3.09-1.68-6.55,3.22-4.46,5.28-9.58,8.27-14.17Z"/>
      <path class="cls-11" d="m109.35,714.91c-2.01.94-2.91-.96-3.91-1.84-6.43-5.59-13.95-8.49-22.25-9.82-2.09-.33-3.87-.25-5.41,1.31-2.36-6.08-3.59-12.4-4.63-19.65,14.56,7.85,26.66,17.34,36.19,29.99Z"/>
      <path class="cls-14" d="m638.47,984.5c8.31,1.47,16.66,1.71,25.04.64,3.02,10.82,3.62,11.96-7.76,11.9-7.95-.04-14.52-4.82-17.27-12.54Z"/>
      <path class="cls-8" d="m707.79,971.02c5.12-2.16,10.01-4.87,15.45-6.23,1.35,2.6,1.29,5.48,1.56,8.27.18,1.94-1.23,3.23-2.68,4.02-3.41,1.87-6.99,3.43-10.47,5.17-1.44.72-2.01.5-2.22-1.23-.41-3.35-1.08-6.67-1.64-10Z"/>
      <path class="cls-14" d="m668.42,983.63c5.47-.7,10.87-1.79,16.18-3.28q3.24,10.52-7.33,13.38c-1.12.3-2.23.67-3.38.87-2.28.4-3.7-.3-4.01-2.89-.32-2.71-.97-5.39-1.47-8.08Z"/>
      <path class="cls-14" d="m689.57,978.99c4.48-1.32,8.95-2.64,13.43-3.96.08.1.2.2.23.31.89,3.2,3.4,7.36,1.37,9.53-2.87,3.05-7.96,3.33-12.16,4.58-1.28.38-1.75-.93-1.89-1.95-.39-2.83-.66-5.67-.98-8.5Z"/>
      <path class="cls-14" d="m445.91,997.9c1.91-6.87,3.81-13.74,5.74-20.61.43-1.51.86-3,.5-4.59,2.12.7,4.46.61,6.46,1.78-1.48,4.84-3.06,9.65-4.4,14.53-.99,3.6-2.71,7.04-2.67,10.89-1.72-1.11-4.32.25-5.62-2.01Z"/>
      <path class="cls-7" d="m451.53,999.91c-.03-3.86,1.69-7.29,2.67-10.89,1.34-4.88,2.92-9.69,4.4-14.53,1.55.42,3.09.85,4.64,1.27-2.39,8.24-4.78,16.48-7.17,24.72-1.52-.19-3.03-.38-4.55-.56Z"/>
      <path class="cls-2" d="m822.55,241.81s.06.03.06.03c-1.34-1.46-3.16-1.62-4.98-1.93-7.19-1.22-14.36-2.51-21.53-3.82-.9-.16-2.52.1-2.16-1.48.3-1.31,1.69-.87,2.69-.72,12.24,1.83,24.44,3.8,36.42,6.97,1.08.29,2.74.48,2.26,2.02-.41,1.31-1.83.28-2.77.21-3.35-.27-6.49-2.15-9.99-1.27Z"/>
      <path class="cls-2" d="m750.96,228.82c1.31.07,2.61.15,3.92.22,4.18.97,8.46,1.2,12.72,1.46,6.63.4,13.21,1.17,19.76,2.26.93.16,2.49-.09,2.34,1.39-.14,1.35-1.62,1.12-2.59,1.02-8.02-.83-16.05-1.59-24.04-2.68-3.14-.43-6.24-.37-9.36-.39-2.38-.02-3.49-.8-2.74-3.28Z"/>
      <path class="cls-6" d="m624.32,248.7c-4.75,1.37-5.22,1.15-6.69-3.44-.67-2.1-1.36-4.2-1.88-6.34-.71-2.95-2.31-4.8-5.49-4.95.12-.04.24-.1.37-.11,7.56-.91,7.35-.84,9.76,6.13,1.02,2.97.27,6.89,3.93,8.71Z"/>
      <path class="cls-6" d="m249.32,518.23c-.78-1.01-.74-2.2-.74-3.38,0-13.21,0-26.42-.01-39.63,0-1.18-.03-2.37.8-3.35-.02,15.45-.03,30.91-.05,46.36Z"/>
      <path class="cls-2" d="m734.45,228.04c.52.07,1.04.13,1.57.2,3.27,1.43,6.72.35,10.07.71,1.02.11,2.52-.02,2.53,1.25,0,1.45-1.55,1.04-2.51,1.06-2.75.06-5.5-.01-8.25.02-2.22.03-3.5-.86-3.41-3.24Z"/>
      <path class="cls-16" d="m930.17,745.45c-1.61-3.33-.58-6.8-.55-10.22,1.13,3.36.22,6.82.55,10.22Z"/>
      <path class="cls-16" d="m929.6,726.58c-.07-3.15-.13-6.29-.2-9.44,1.14,3.12.99,6.27.2,9.44Z"/>
      <path class="cls-16" d="m655.8,867.53c3.14-.07,6.27-.15,9.41-.22-3.11,1.13-6.25,1-9.41.22Z"/>
      <path class="cls-2" d="m932.41,488.41c.02,2.86.03,5.72.05,8.59-1.14-2.86-1.07-5.72-.05-8.59Z"/>
      <path class="cls-16" d="m76.18,617.29c.07,2.62.14,5.24.2,7.87-1.12-2.59-1-5.22-.2-7.87Z"/>
      <path class="cls-16" d="m638.49,868.06c2.69-.38,5.37-.54,8.07-.12-2.68.42-5.38.37-8.07.12Z"/>
      <path class="cls-16" d="m254.63,518.24c.42,2.34.45,4.7.23,7.07-1.15-2.32-1.03-4.68-.23-7.07Z"/>
      <path class="cls-10" d="m588.95,839.18c-2.08.68-4.14.71-6.17-.19,2.06.06,4.12.13,6.17.19Z"/>
      <path class="cls-2" d="m930.65,473c-.58-2.15-.66-3.37-.13-4.77.71,1.34.44,2.56.13,4.77Z"/>
      <path class="cls-6" d="m229.81,471.11c1.03,2.07,1.03,4.15,0,6.22-.32-2.07-.32-4.15,0-6.22Z"/>
      <path class="cls-6" d="m249.53,466.74c-.18-1.71-.58-3.45.46-5.05.19,1.72.37,3.43-.46,5.05Z"/>
      <path class="cls-2" d="m232.95,778.75c1.67-.24,3.36-.59,4.93.4-1.66.02-3.34.39-4.93-.4Z"/>
      <path class="cls-2" d="m932.35,480.53c.04,1.3.08,2.59.11,3.89-.95-1.27-.91-2.57-.11-3.89Z"/>
      <path class="cls-2" d="m933.14,518.29c.04,1.03.07,2.05.11,3.08-.85-1-.86-2.02-.11-3.08Z"/>
      <path class="cls-6" d="m587.46,231.15c.72-.58,1.52-.66,2.39-.42-.71.65-1.54.57-2.39.42Z"/>
      <path class="cls-1" d="m555.17,1013.65c.46-.15.91-.3,1.37-.45-.25.76-.74.8-1.37.45Z"/>
      <path class="cls-6" d="m219.34,533.71c.06.72-.14,1.34-.69,1.82.23-.61.46-1.22.69-1.82Z"/>
      <path class="cls-16" d="m254.1,503.27c.37.55.38,1.11.02,1.67,0-.56-.01-1.12-.02-1.67Z"/>
      <path class="cls-6" d="m162.82,599.11c-.32.24-.64.47-.96.71.32-.24.64-.47.96-.71Z"/>
      <path class="cls-6" d="m252.52,618.08c-.21-.42-.41-.84-.62-1.26.21.42.41.84.62,1.26Z"/>
      <path class="cls-11" d="m77.87,704.45c.03.3.06.6.09.9-.52-.25-.93-.51-.09-.9Z"/>
      <path class="cls-3" d="m631.76,695.87c-49.95-.76-102.04-2.9-153.8-9.57-25.04-3.23-50.27-6.11-74.41-14-37.9-12.38-68.06-34.81-87.89-70-12.23-21.7-18.35-45.31-21.09-69.85-3.6-32.2-1.97-64.08,6.97-95.39,15.22-53.26,48.79-91.16,97.57-116.19,33.32-17.09,68.95-27.67,105.27-35.99,56.96-13.05,114.65-20.58,173.1-22.36,31.84-.97,63.67-1.27,95.44,1.13,30.88,2.33,61.49,6.47,90.6,17.88,15.98,6.27,30.27,15.03,40.9,28.85,6.31,8.2,10.7,17.34,12.68,27.59,1.02,5.27.61,10.45-.62,15.58-9.44,39.2-12.78,79.1-12.76,119.27.02,33.43,2.18,66.76,9.07,99.61,2.21,10.55,5.45,20.83,10.08,30.52,4.07,8.54,3.88,16.93,1.35,25.6-4.18,14.34-13.51,24.57-25.98,32.27-16.11,9.95-34.1,14.58-52.34,18.43-34.42,7.27-69.3,10.99-104.33,13.54-35.82,2.61-71.7,3.35-109.81,3.07Zm90.05-388.54c-.51-.4-.96-.92-1.53-1.18-23-10.72-47.39-15.17-72.58-15.89-14.38-.41-28.74.43-43.11.83-8.18.81-16.39,1.43-24.54,2.47-18.54,2.39-36.97,5.41-55.28,9.23-42.44,8.85-83.92,20.52-122.26,41.4-20.81,11.33-38.94,25.99-53.22,45.04-23.26,31.04-34.66,66.28-36.17,104.81-.66,16.77.71,33.48,3.92,49.94,6.21,31.91,19.6,59.98,44.29,82.03,20.04,17.9,44.22,26.98,69.59,33.73,9.54,2.8,19.08,5.62,28.93,7.16.74.24,1.48.52,2.24.7,32.2,7.42,64.81,12.11,97.7,15.13,44.8,4.11,89.68,6.12,134.57,2.81,47.98-3.53,74.18-29.84,85.48-70.44,1.59-4.13,2.49-8.43,3.32-12.76,1.03.12,2.07.17,3.08.38,10.18,2.16,19.63,6.19,28.68,11.24.74.61,1.46,1.28,2.6,1.2,0-1.37-1.03-1.64-1.91-2.05-1.92-2.02-4.44-3.14-6.78-4.51-7.81-4.55-16.37-7.27-24.81-10.3,1.38-4.24,1.42-8.69,1.97-13.06,10.34-.35,20.23,2.12,30.13,4.72-9.19-5.74-19.42-7.65-29.99-8.35.05-4.55.09-9.09.14-13.64l-.02-1.89c.48-7.06-.64-14-1.62-20.95-.33-2.35-1.19-2.08-2.7-.76-2.93,2.56-6,4.95-9.01,7.41-10.71,5.15-21.89,6.55-32.53.89-20.48-10.9-33.3-27.6-33.34-51.57-.05-35.42,14.74-63.91,42.46-85.79,1.43-1.13,2.94-2.23,4.58-3.01,2.29-1.1,3.68-.14,3.32,2.38-.3,2.05-1.04,4.04-1.71,6.02-.55,1.63-.27,2.36,1.64,2.44,7.19.29,13.78,2.81,20.3,5.58,3.01,1.83,6.01,3.65,9.02,5.48.77,1.89,2.84,2.17,4.16,3.39,1.4,1.3,2.32.71,2.86-.88,1.76-5.18,3.95-10.28,3.72-15.91-.41-9.78-2.05-19.29-4.38-28.87-3.15-12.95-7.19-25.31-14.5-36.49-.32-.71-.56-1.47-.98-2.12-7.8-11.95-17.37-22.28-28.87-30.73-8.33-6.12-16.88-11.97-26.84-15.27Zm53.45,146.43c-.03-5.64-2.41-9.85-7.66-12.13-4.66-2.03-8.94-1.33-12.59,2.36-.43-2.22-2.1-2-3.68-1.82-7.8.9-14.69,4.12-18.96,10.62-14.64,22.29-17.83,46.26-7.18,70.93,7.06,16.34,25.36,23.01,40.33,15.78,9.36-4.52,15.51-12.34,19.23-21.92,7.1-18.29,6.11-36.41-2.07-54.1-1.7-3.67-3.3-7.75-7.42-9.72Zm71.57-66.82c1.49-.4,1.44-1.63,1.58-2.81,1.4-11.17,3.17-22.26,6.04-33.16,1.36-5.18,1.52-10.37-.54-15.43-2.31-5.65-5.94-10.19-12.44-10.55-6.2-.35-10.09,3.6-12.86,8.75-2.5,4.65-4.02,9.67-5.37,14.73-6.67,25.07-8.35,50.79-9.28,76.53-.54,14.76-.34,29.56.45,44.36.71,13.19,1.49,26.37,2.75,39.5,1.57,16.38,3.65,32.71,6.73,48.92,5.56,29.27,13.37,57.89,24.27,85.63,2.14,5.45,4.32,10.95,8.76,15.19,5.67,5.41,11.77,5.65,17.29.08,5.83-5.88,7.77-13.17,6.72-21.26-.79-6.04-3.36-11.56-5.6-17.13-2.09-5.19-2.84-10.89-6.03-15.64.5-1.34,0-2.56-.39-3.81-8.14-26.3-13.89-53.11-17.83-80.36-5.18-35.87-6.78-71.87-5.36-108.06.33-8.49,1.73-16.94,1.11-25.47Z"/>
      <path class="cls-11" d="m408.15,30.06c-4.63.12-9.1-.59-13.35-2.49,4.86-1.39,9.07.77,13.35,2.49Z"/>
      <path class="cls-12" d="m901.84,793.4c0-.3-.01-.6-.02-.9.08.21.18.41.21.62.01.08-.13.18-.19.28Z"/>
      <path class="cls-11" d="m265.28,334.3c-22.84,1.33-47.77-19.28-50.94-41.74-1.03-7.27.65-13.58,6.57-18.22,4.29-3.36,9.05-2.62,13.78-.83,1.27.48,2.57,2.09,3.89.97,1.13-.96.66-2.76.4-4.13-2.86-14.56,7.2-31.39,24.12-35.26,13.33-3.04,28.51,5.02,33.48,17.87,1.94,5.01,2.67,10.09,2.29,15.37-.19,2.71.37,3.82,3.5,2.85,13.23-4.07,22.34,4.79,19.51,18.39-4.94,23.74-31.32,45.89-56.6,44.71Z"/>
      <path class="cls-13" d="m148.97,294.24c1.21-17.82,5.93-34.79,12.4-51.33,7.93-20.28,18.41-39.05,33.1-55.28,4.09-4.52,8.77-8.27,14.6-10.32,1.94-.68,4.21-1.61,5.83.42,1.79,2.23-.21,3.91-1.43,5.5-21.39,27.81-38.27,58.14-50.57,90.98-2.71,7.22-4.7,14.71-7.14,22.04-.75,2.25-1.12,5.79-4.13,5.37-3.29-.47-2.38-4.08-2.67-6.57-.03-.26,0-.52,0-.79Z"/>
      <path class="cls-13" d="m406.7,61.6c2.68.28,6.03-.58,6.5,2.2.51,3.05-3.09,3.04-5.14,3.6-24.17,6.66-47.41,15.78-70.26,25.98-2.75,1.23-5.52,2.43-8.52,2.93-2.8.47-5.34-.07-6.86-2.63-1.52-2.56-.74-5.09.96-7.31,2.15-2.79,5.22-4.33,8.33-5.72,20.1-8.97,41.15-14.61,62.92-17.59,4.15-.57,8.31-1.02,12.05-1.48Z"/>
      <path class="cls-13" d="m299.95,110.65c.12,4.28-4.3,8.68-8.88,8.83-3.76.12-6.92-2.85-6.91-6.48.01-4.26,4.27-8.51,8.63-8.62,3.88-.1,7.06,2.69,7.16,6.27Z"/>
      <path class="cls-11" d="m625.86,804.71c-16.13-1.37-31.73-.5-47.27-1.23-22.56-1.06-45.09-2.5-67.55-5.19-42.83-5.13-84.9-13.77-126.35-25.62-12.33-3.52-24.7-6.93-36.86-11.04-1.61-.54-3.21-1.16-4.7-1.95-2.05-1.09-3.86-2.61-3.18-5.25.71-2.72,3.05-3.48,5.54-3.43,3.42.08,6.74.95,9.98,1.95,35.41,10.96,71.32,19.93,107.77,26.65,17.21,3.17,34.56,5.51,51.95,7.55,19.07,2.24,38.2,3.59,57.37,4.84,30.48,1.98,60.96,1.47,91.44,1.24,15.53-.11,31.08-1.11,46.57-2.32,18.87-1.47,37.77-2.62,56.54-5.2,6.07-.83,12.21-1.23,18.32-1.73,1.38-.11,3.16-.32,3.63,1.51.49,1.94-1.13,2.8-2.56,3.43-3.27,1.44-6.83,1.67-10.3,2.33-18.88,3.62-37.97,5.64-57.05,7.72-17.4,1.89-34.85,3.02-52.33,4.06-13.85.83-27.73-.05-40.97,1.67Z"/>
      <path class="cls-9" d="m777.62,428.73c-6.52-2.77-13.11-5.3-20.3-5.58-1.91-.08-2.19-.81-1.64-2.44.66-1.98,1.41-3.97,1.71-6.02.36-2.52-1.03-3.48-3.32-2.38-1.63.78-3.15,1.88-4.58,3.01-27.71,21.88-42.51,50.36-42.46,85.79.04,23.97,12.86,40.67,33.34,51.57,10.63,5.66,21.81,4.26,32.53-.89,1.2,4.88,1.9,9.82,1.66,14.86-9.46,1.32-18.93,2.61-28.39,3.99-3.14.46-5.16-.47-7.34-3.06-7.66-9.13-15.54-18.12-25.03-25.45-11.61-8.96-24.78-12.06-39.24-9.92-13.18,1.95-23.61,8.97-32.84,18.05-6.92,6.81-12.96,14.41-19.06,21.94-1.86,2.3-3.49,4.71-7.23,4.52-11.93-.62-24.01,1.36-35.75-2.62-5.04-1.71-10.64-.74-15.7-2.7,6.76-2.44,13.59-4.66,19.85-8.31,9.83-5.73,19.34-11.96,29.37-17.36,5.72-3.08,6.31-5.82,2.56-11.02-2.07-2.87-2.29-5.51-1.4-8.75,2.09-7.61,2.86-15.42,2.72-23.3-.22-11.5-2.79-22.53-6.99-33.2,7.09,2.34,14.13,4.89,21.83,4.02,9.42-1.07,17.3-4.89,22.92-12.77.61-.85,1.32-1.81.66-2.87-.75-1.2-1.88-.51-2.83-.25-16.09,4.45-30.82.88-44.67-7.65-9.36-5.77-16.94-13.54-24.1-21.77-2.19-2.51-4.02-5.73-8.22-4.98-1.92-3.3-4.13-6.38-7.04-8.87-1.29-1.1-2.77-2.24-4.59-1.2-1.74.98-1.3,2.71-1.06,4.24.35,2.28.85,4.55,1.39,7.37-7.6-2.92-14.98-4.49-22.59-4.64-20.42-.4-38.1,6.98-54.03,19.24-2.07,1.59-4,3.4-6.43,4.46-2.19-1.35-3.59-4.97-7.17-2.18-8.12,6.3-16.8,11.75-25.81,16.69-4.37,1.56-8.87,2.01-13.45,1.43-12.95-1.65-24.31-7.01-34.51-15-3.92-3.07-3.87-3.13-.36-6.8,22.32-23.28,48.09-41.99,76.3-57.4,42.83-23.38,88.01-38.98,137.28-40.74,1.08-.04,2.07-.23,2.94-.89.74.17,1.48.33,2.22.5.36,1.51,1.57,2.4,2.62,3.34,7.67,6.91,15.2,13.99,23.13,20.59,17.98,14.96,30.74,33.35,37.83,55.67.71,2.24.66,5.96,3.38,6.04,2.94.08,3.21-3.66,4.02-5.99,3.24-9.4,6.42-18.82,10.72-27.8,7.12-14.89,17.51-27.54,27.63-40.37,5.8.99,11.14,3.34,16.51,5.58,1.41,2.99,3.83,5.23,5.95,7.64,12.97,14.78,22.36,31.41,25.94,50.9.82,4.46,2.95,8.98,1.11,13.72Z"/>
      <path class="cls-13" d="m564,571.41c5.06,1.96,10.66.99,15.7,2.7,11.73,3.98,23.82,2,35.75,2.62,3.75.19,5.37-2.22,7.23-4.52,6.1-7.53,12.14-15.13,19.06-21.94,9.23-9.08,19.66-16.09,32.84-18.05,14.46-2.14,27.62.95,39.24,9.92,9.49,7.33,17.37,16.32,25.03,25.45,2.17,2.59,4.19,3.52,7.34,3.06,9.45-1.39,18.92-2.67,28.39-3.99,3.89-.18,7.78-.37,11.66-.55,0,.63.02,1.26.02,1.89-3.94.69-8,.72-11.77,2.29-9.43,1.63-18.59,4.21-27.43,7.86-1.34.56-3.58.97-3.24,2.82.37,2.03,2.57,2.38,4.44,2.46,1.69.07,3.4.03,5.09-.09,7.03-.5,14.07-1.05,21.1-1.59,3.89-.04,7.78-.07,11.68-.11,10.57.7,20.8,2.61,29.99,8.35-9.9-2.6-19.8-5.07-30.13-4.72-4.12-.12-8.2.29-12.28.87-7.16.65-14.32,1.27-21.47,1.96-1.27.12-2.8.17-2.89,1.98-.08,1.72,1.02,2.6,2.55,3.01,1.01.27,2.02.56,3.05.69,5.96.75,11.93,1.45,17.9,2.17,3.72.8,7.44,1.59,11.16,2.39,8.44,3.04,17,5.76,24.81,10.3,2.35,1.37,4.87,2.48,6.78,4.51-.23.28-.46.56-.68.85-9.05-5.05-18.51-9.07-28.68-11.24-1.01-.21-2.05-.26-3.08-.38-3.07-.99-6.26-1.34-9.45-1.63-8.53-1.57-17.11-1.72-25.72-.91-1.48.14-2.99.55-3.14,2.35-.15,1.81,1.51,2,2.7,2.26,7.02,1.52,13.88,3.64,20.75,5.71,2.72,1.33,5.79,1.92,8.17,3.94-.73.53-1.78.9-2.14,1.61-1.67,3.31-4.09,3.23-7.22,2.33-5.13-1.48-10.35-2.71-15.6-3.73-4.35-.84-8.71-1.99-13.27-1.49,1.64.74,3.35,1.14,5.08,1.41,7.87,1.23,15.62,3.01,23.35,4.9,2.42.59,2.88,1.35,1.28,3.63-3.24,4.61-8.48,7.4-11.14,12.51-.22.42-1.14.46-1.74.68-.2-.05-.41-.11-.61-.16.06.2.12.4.17.6.03.83-.32,1.49-.86,2.11-5.72,6.5-12.5,11.7-20.79,14.15-11.62,3.45-22.75,2.84-31.78-6.76-.8-.85-1.56-1.8-2.87-1.87-.05-3.83.99-7.49,1.8-11.19,1.63-7.39,3.9-14.69,3.7-22.37-.06-2.3,1.17-2.45,2.88-2.66,6.86-.85,9.65-4.27,10.44-12.06.33-3.23,1.37-4.95,3.85-6.47,3.15-1.93,6.68-4.15,7.58-7.68,3.75-14.67,2.49-21.62-11.42-26.5-9.81-3.44-19.9-4.36-30.16-2.85-7.39,1.09-14.72,2.6-21.11,6.78-5.94,3.88-7.79,8.71-6.27,15.48,1.02,4.54,2.93,8.65,5.72,12.35,3.78,5.02,8.37,7.92,14.88,5.47,2.4-.91,3.52.13,4.39,2.32,1.6,4.01,3.05,8.67,6.72,10.84,4.81,2.84,4.09,6.65,3.72,10.74-.17,1.95-.56,3.88-.84,5.82-2.53-1.79-1.8,1.1-2.06,1.69-3.43,8.06-6.4,16.31-13.69,22.04-10.37,8.16-22.6,10.85-35.23,11.53-20.69,1.11-41.27-.73-61.7-4.02-5.09-.82-10.39-1.07-15.14-3.51.48-.32,1.43-.66.81-1.29-.54-.55-1.04.25-1.32.82-1.76.57-3.51.75-5.37.29-9.09-2.24-18.2-4.4-27.78-6.7.78-.67,1.14-.98,1.51-1.3.37-.32.86-.58.4-1.47-7.09,3.76-13.3-.21-20.84-2.12,20.88-11.43,42.44-16.97,64.75-20.23-7.97-.56-15.65.91-23.34,2.27-13.15,2.32-25.3,7.52-37.33,13.08-1.69.78-3.41,2.33-5.38.49,3.21-1.72,6.42-3.44,9.63-5.16,10.99-4.98,22.38-8.71,34.12-11.5,10.88-2.59,22.31-3.17,32.4-8.73.54-.3,1.27-.24,1.91-.34,7.63-1.61,15.43-2.18,23.11-3.57-2.76-.41-5.45-.25-8.18-.08-4.78.3-9.42,1.82-14.25,1.44-1.24-3.13-4.17-2.41-6.42-2.46-24.43-.49-48.55,2.05-72.38,7.51-7.4,1.7-14.36,4.88-21.87,6.14-.2-.04-.39-.13-.54-.27.74-1.27,2.16-1.37,3.32-1.89,15.36-6.84,31.74-9.71,48.18-12.34,14.11-2.25,28.39-2.76,42.62-3.76,2.11-.15,5.79.75,5.88-2.11.07-2.42-3.62-2.4-5.83-2.9-23.3-5.38-46.78-4.63-70.3-1.88-7.28.85-14.3,3.24-21.67,3.54,6.98-3.17,14.57-3.94,21.93-5.61,23.03-4.94,46.17-4.87,69.38-1.48,2.32.34,4.6,1.03,6.93,1.35,3.8.52,3.81-3.17,4.89-5.16.88-1.62-1.63-1.79-2.75-2.19-3.69-1.3-7.41-2.6-11.22-3.51-8.51-2.03-17.07-3.82-25.61-5.7,2.58-1.4,5.53-.85,8.24-1.57Zm187.9,62.17c-.5-.29-1.01-.58-1.51-.87-.49-.99-1.34-1.4-2.4-1.49-.21-.06-.41-.12-.62-.18.06.21.12.41.18.62.8.53,1.59,1.06,2.39,1.59.5.29,1.01.59,1.51.88.3.55.82,1.28,1.33.67.52-.61-.33-.98-.88-1.23Zm-182.01,12.57c-.56.26-1.43.63-.9,1.25.53.63,1.04-.13,1.35-.69.51-.29,1.02-.58,1.53-.87.8-.51,1.6-1.02,2.4-1.53.49-.33,1.42-.69.81-1.31-.55-.56-1.06.22-1.35.79-1.05.05-1.85.5-2.31,1.48-.51.29-1.02.58-1.53.87Zm172.94-17.6c.27.25.54.5.8.75.53.56,1.08,1.11,1.94.97.09-.02.21-.58.15-.61-.53-.3-1.09-.54-1.65-.8-.27-.25-.53-.5-.8-.76-.53-.57-1.08-1.13-1.95-.98-.09.02-.21.58-.16.61.53.31,1.1.56,1.65.82Zm-163.86,12.58c1.07-.45,2.29-.76,2.62-2.31-1.64-.02-2.47.67-3.08,1.72-.68.33-2.18.32-1.54,1.37.55.9,1.38-.32,2-.79Zm7.43-5.19c-1.4.18-2.69.53-3.46,2.12,1.89.31,2.86-.78,3.9-1.69.06-.21.12-.42.18-.62-.2.06-.41.13-.61.19Zm4.36-1.9c2.38-.46,4.47-1.52,6.32-3.06.28-.22.57-.45.85-.67-.49-.58-.89-.17-1.29.13-2.38.5-4.51,1.52-6.33,3.16-.06.21-.12.41-.18.62.21-.06.42-.12.63-.18Zm-52.24,4.75c26.62-10.42,54.03-17.89,82.34-22.04-28.76,2.43-56.04,10.41-82.34,22.04Zm199.34-13.59c-2.79-1.92-5.48-4.04-9.03-4.29,2.61,2.26,5.65,3.66,9.03,4.29Zm-138.12,3.89c.13.26.24.61.3.6.33-.06.75-.11.94-.33.26-.31.08-.72-.35-.71-.3,0-.59.28-.89.43Z"/>
      <path class="cls-1" d="m490.03,616.6c.16.14.34.23.54.26,7.3,1.7,13.97,4.93,20.55,8.39-8.92,1.21-17.83,2.46-26.6,4.6-14.98,3.66-29.52,8.37-41.83,18.12-4.35,3.45-9.24,6.46-11.77,11.77-25.37-6.76-49.55-15.84-69.59-33.73-24.69-22.05-38.08-50.12-44.29-82.03-3.21-16.47-4.57-33.18-3.92-49.94,1.51-38.53,12.9-73.78,36.17-104.81,14.28-19.05,32.4-33.71,53.22-45.04,38.34-20.87,79.82-32.54,122.26-41.4,18.31-3.82,36.74-6.85,55.28-9.23,8.15-1.05,16.36-1.66,24.55-2.47-.85,5.76-3.05,11.28-3.07,17.19-8.44.89-16.91,1.52-25.31,2.72-20.45,2.94-40.76,6.64-60.88,11.36-35.04,8.23-69.09,19.15-100.75,36.62-21.86,12.06-40.5,27.97-54.95,48.3-18.49,26.01-26.75,55.64-28.44,87.22-.58,10.84-.04,21.69,1.51,32.47,1.7,11.82,4.23,23.42,8.74,34.52.66,1.62,1.45,3.08,3.03,3.97-.03,1.32.14,2.6.8,3.79,4.85,8.85,10.56,17.19,17.74,24.23,11.53,11.31,24.56,20.57,39.87,26.29,4.94,1.85,4.88,1.98,2.67,6.76-1.26,2.74-2.16,5.66.64,7.86,2.62,2.07,4.65-.36,6.55-1.71,4.56-3.24,8.55-7.27,13.59-9.85,5.09,1.67,10.26,3.17,15.26,5.08,4.1,1.57,7.7,1.3,11.62-.78,10.82-5.75,22.14-10.1,34.55-10.87.24-.01.45.05.64.19.24.07.49.15.73.22.3-.02.6-.05.9-.07Z"/>
      <path class="cls-1" d="m869.31,604.64c3.19,4.75,3.95,10.46,6.03,15.64,2.24,5.57,4.82,11.09,5.6,17.13,1.05,8.09-.88,15.38-6.72,21.26-5.53,5.57-11.63,5.33-17.29-.08-4.44-4.24-6.62-9.74-8.76-15.19-10.9-27.74-18.7-56.36-24.27-85.63-3.08-16.2-5.17-32.54-6.73-48.92-1.26-13.13-2.04-26.31-2.75-39.5-.8-14.8-.99-29.6-.45-44.36.93-25.74,2.61-51.46,9.28-76.53,1.35-5.06,2.87-10.08,5.37-14.73,2.77-5.15,6.66-9.1,12.86-8.75,6.51.36,10.14,4.9,12.44,10.55,2.06,5.05,1.9,10.24.54,15.43-2.87,10.9-4.64,22-6.04,33.16-.15,1.18-.09,2.42-1.58,2.81-1.42-1.04-2.23-3.38-4.35-2.88-2.41.56-2.72,3.05-3.15,5.03-1.55,7.17-2.3,14.45-2.73,21.77-1.16,19.88-.52,39.74.61,59.6,1.83,31.93,6.3,63.47,13.65,94.59,2.56,10.82,5.31,21.6,9.58,31.91,1.64,3.95,3.73,7.63,8.86,7.68Z"/>
      <path class="cls-5" d="m755.07,635.93c.6-.22,1.52-.26,1.74-.68,2.66-5.11,7.9-7.9,11.14-12.51,1.6-2.27,1.14-3.04-1.28-3.63-7.73-1.89-15.48-3.67-23.35-4.9-1.73-.27-3.44-.67-5.08-1.41,4.56-.5,8.92.65,13.27,1.49,5.25,1.01,10.46,2.25,15.6,3.73,3.13.9,5.55.98,7.22-2.33.36-.71,1.41-1.08,2.14-1.61,1.13.35,2.25.69,3.38,1.04-11.29,40.6-37.49,66.9-85.48,70.44-44.89,3.3-89.77,1.3-134.57-2.81-32.88-3.02-65.5-7.71-97.7-15.13-.76-.17-1.49-.46-2.24-.7,15.32-14.62,33.99-23.96,52.65-33.3,1.97,1.84,3.69.29,5.38-.49,12.03-5.55,24.18-10.75,37.33-13.08,7.69-1.36,15.37-2.83,23.34-2.27-22.32,3.25-43.87,8.79-64.75,20.23,7.54,1.9,13.75,5.88,20.84,2.12.45.89-.03,1.15-.4,1.47-.37.31-.73.63-1.51,1.3,9.58,2.3,18.69,4.46,27.78,6.7,1.86.46,3.61.27,5.37-.29.17.15.34.31.51.47,4.75,2.44,10.05,2.69,15.14,3.51,20.43,3.29,41.02,5.13,61.7,4.02,12.63-.68,24.86-3.37,35.23-11.53,7.29-5.73,10.26-13.98,13.69-22.04.25-.6-.47-3.48,2.06-1.69-2.18,17.05-10.5,29.87-26.08,37.6-8.71,4.32-17.98,6.29-27.68,6.45-4.82.08-9.61-.18-14.18-1.11-.64,1.34-.06,1.96.37,2.59,5.53,7.96,13.42,10.83,22.77,10.63,10.25-.21,18.99-4.52,27.23-10.06,2.25-1.51,3.96-1.69,6.32-.2,4.16,2.63,8.83,3.27,13.6,1.9,4.63-1.34,5.76-3.93,3.73-8.26-2.64-5.64-3.47-11.46-1.95-17.55,1.31.08,2.07,1.02,2.87,1.87,9.02,9.6,20.15,10.21,31.78,6.76,8.28-2.45,15.07-7.65,20.79-14.15.54-.62.89-1.27.86-2.11.15-.15.29-.29.44-.44Z"/>
      <path class="cls-15" d="m775.27,453.76c4.13,1.97,5.72,6.04,7.42,9.72,8.17,17.69,9.17,35.81,2.07,54.1-3.72,9.58-9.87,17.4-19.23,21.92-14.97,7.24-33.27.56-40.33-15.78-10.66-24.67-7.46-48.64,7.18-70.93,4.27-6.5,11.16-9.72,18.96-10.62,1.58-.18,3.25-.4,3.68,1.82-1.75,3.21-2.7,6.59-2.11,10.28-2.09.38-3.4,1.87-4.52,3.46-2.64,3.73-4.8,7.77-6,12.16-1.45,5.29-3.79,10.44-3.17,16.15-.89,1-1.78,2-2.67,3-4.37,2.4-6.45,6.47-7.46,11.03-2.7,12.24,2.19,21.81,11.24,29.54,7.97,6.8,19.48,7.82,27.51,2.9,8.74-5.35,12.86-15.47,10.45-25.87-.56-2.42-1.17-4.89-3.69-6.18,1.21-12.35,2.42-24.7-5.39-35.7-.33-.46-.2-1.26-.28-1.9,3.56-2.02,5.37-5.26,6.33-9.09Z"/>
      <path class="cls-10" d="m744.62,356.47c-5.37-2.24-10.71-4.59-16.51-5.58,0-.23,0-.46,0-.7.29-.86.48-1.78.88-2.59,3.9-7.72,4.16-15.54.75-23.49,14.5,5.23,27.43,13.1,39.2,23,3.24,2.73,5.85,6.17,9.57,8.33,7.31,11.19,11.35,23.55,14.5,36.49,2.33,9.57,3.97,19.09,4.38,28.87.24,5.63-1.96,10.73-3.72,15.91-.54,1.59-1.46,2.18-2.86.88-1.32-1.22-3.39-1.5-4.17-3.38.41-20.34-4.93-39.24-14.58-56.99-2.1-3.86-3.92-8.05-7.61-10.79-6.01-4.48-12.61-7.84-19.82-9.96Z"/>
      <path class="cls-2" d="m601.52,308.28c.02-5.91,2.22-11.43,3.07-17.19,14.37-.4,28.73-1.24,43.11-.83,25.19.72,49.58,5.17,72.58,15.89.57.27,1.02.78,1.53,1.18,1.39,5.35,5.18,9.7,6.32,15.16-1.51-.39-3.11-.58-4.53-1.19-22.69-9.78-46.7-13.36-71.1-14.41-16.97-.73-34-.32-50.94,1.43l-.04-.04Z"/>
      <path class="cls-8" d="m869.31,604.64c-5.12-.05-7.22-3.73-8.86-7.68-4.26-10.31-7.02-21.09-9.58-31.91-7.35-31.12-11.83-62.66-13.65-94.59-1.14-19.87-1.77-39.72-.61-59.6.43-7.32,1.18-14.6,2.73-21.77.43-1.97.74-4.46,3.15-5.03,2.12-.5,2.93,1.84,4.35,2.88.62,8.53-.77,16.98-1.11,25.47-1.42,36.19.17,72.19,5.36,108.06,3.94,27.25,9.68,54.06,17.83,80.36.39,1.25.9,2.48.39,3.81Z"/>
      <path class="cls-10" d="m512.5,633.61c-18.66,9.34-37.33,18.67-52.65,33.3-9.85-1.54-19.39-4.36-28.93-7.16,2.53-5.31,7.42-8.32,11.77-11.77,12.3-9.76,26.85-14.47,41.83-18.12,8.76-2.14,17.68-3.38,26.6-4.6,3.67,1.06,7.34,2.13,11.01,3.19-3.21,1.72-6.42,3.44-9.63,5.16Z"/>
      <path class="cls-11" d="m744.62,356.47c7.21,2.12,13.81,5.48,19.82,9.96,3.68,2.75,5.51,6.93,7.61,10.79,9.66,17.75,15,36.65,14.58,56.99-3-1.83-6.01-3.66-9.01-5.48,1.84-4.74-.28-9.26-1.11-13.72-3.59-19.48-12.98-36.12-25.94-50.9-2.12-2.42-4.54-4.65-5.95-7.64Z"/>
      <path class="cls-1" d="m728.14,322.49c-1.14-5.46-4.93-9.81-6.32-15.16,9.96,3.3,18.51,9.15,26.84,15.27,11.5,8.44,21.07,18.77,28.87,30.73.42.64.66,1.41.98,2.12-3.72-2.16-6.33-5.61-9.57-8.33-11.77-9.9-24.7-17.77-39.2-23-.54-.54-1.07-1.08-1.6-1.62Z"/>
      <path class="cls-13" d="m775.27,453.76c-.95,3.83-2.76,7.07-6.33,9.09-7.82,2.48-13.06-.33-16.04-8.59-.59-3.69.36-7.07,2.11-10.28,3.65-3.69,7.93-4.38,12.59-2.36,5.25,2.28,7.63,6.49,7.66,12.13Z"/>
      <path class="cls-6" d="m786.23,566.1c-3.89.18-7.78.37-11.66.55.24-5.04-.46-9.98-1.66-14.86,3.01-2.46,6.08-4.85,9.01-7.41,1.5-1.31,2.37-1.58,2.7.76.98,6.95,2.1,13.89,1.62,20.95Z"/>
      <path class="cls-11" d="m786.12,581.64c-3.89.04-7.78.07-11.68.11.02-3.82.03-7.64.04-11.47,3.77-1.57,7.84-1.59,11.77-2.29-.05,4.55-.09,9.09-.14,13.64Z"/>
      <path class="cls-11" d="m784.01,598.33c-3.72-.8-7.44-1.59-11.16-2.39.28-3.27.57-6.54.85-9.81,4.07-.58,8.16-.99,12.28-.87-.55,4.37-.59,8.82-1.97,13.06Z"/>
      <path class="cls-6" d="m779.83,615.11c-1.13-.35-2.25-.69-3.38-1.04-2.38-2.02-5.45-2.62-8.17-3.94,2.75-2.59,2.27-7.05,5.42-9.41,3.19.29,6.38.65,9.45,1.63-.83,4.32-1.73,8.63-3.32,12.76Z"/>
      <path class="cls-13" d="m815.6,613.13c.89.41,1.92.68,1.91,2.05-1.13.08-1.85-.59-2.6-1.2.23-.28.46-.56.68-.85Z"/>
      <path class="cls-10" d="m344.48,565.47c-1.58-.89-2.37-2.35-3.03-3.97-4.51-11.1-7.05-22.7-8.74-34.52-1.55-10.78-2.09-21.63-1.51-32.47,1.69-31.58,9.95-61.21,28.44-87.22,14.45-20.33,33.09-36.24,54.95-48.3,31.67-17.48,65.71-28.39,100.75-36.62,20.13-4.73,40.44-8.43,60.88-11.36,8.39-1.21,16.87-1.83,25.31-2.72,0,0,.04.04.04.04-.39,8.64,4.07,15.25,8.79,21.89,2.06,2.9,5.62,4.76,6.22,8.69-.87.65-1.86.85-2.94.89-49.27,1.76-94.45,17.35-137.28,40.74-28.22,15.41-53.99,34.12-76.3,57.4-3.51,3.66-3.56,3.73.36,6.8,10.2,7.99,21.56,13.35,34.51,15,4.57.58,9.08.13,13.45-1.43.54.86,1.52.83,2.33,1.12-4.17,3.07-1.21,6.08.08,9.11-.55.31-1.1.63-1.65.94-.83.08-1.66.17-2.49.25-.51.13-1.03.26-1.54.39-.81.05-1.62.1-2.43.14-1.51-1.16-3.28-.69-4.94-.71-6.42-.1-12.89.39-19.24-.32-10.97-1.21-19.56-6.97-26.24-15.66-2.77-3.6-3.8-3.64-6.51-.15-2.25,2.89-4.58,5.74-6.58,8.8-3.89,5.97-7.87,11.92-10.36,19.84,5.23-4.71,9.78-8.64,15.46-10.83,1.16-.45,2.54-1.42,3.68-.36,1.27,1.18.41,2.66-.04,4.02-1.31,3.95-3.81,7.5-4.02,11.82-.65,1.1-1.3,2.2-1.95,3.31-.46.48-.93.96-1.39,1.44-11.39,15.11-13.33,31.38-6.03,48.8,5.45,13.02,18.94,22.03,32.46,21.11,7.7-.52,14.54-4.03,21.2-7.72.41-.29.82-.57,1.23-.86l-.07.04c1.08.33,2.06-.1,3.05-.41,12.24-3.86,24.82-5.1,37.58-4.82,2.53.06,5.17,0,7.77,1.78-2.43,1.36-4.79,1.44-7.06,1.62-30.32,2.34-57.84,11.56-80.59,32.59-2.69.08-5.08-1.06-7.52-1.94-13-4.68-25.6-10.3-38.09-16.17Z"/>
      <path class="cls-3" d="m450.78,468.52c-1.29-3.02-4.24-6.04-.08-9.11,0,0-.04-.08-.04-.08.97.16,1.84-.05,2.55-.77l.38-.1c.76.07,1.45-.07,2-.66,9.75-2.55,18.01-7.82,25.76-14.02,2.43-1.07,4.36-2.87,6.43-4.46,15.93-12.25,33.61-19.64,54.03-19.24,7.61.15,14.99,1.72,22.59,4.64-.54-2.82-1.04-5.09-1.39-7.37-.24-1.53-.67-3.26,1.06-4.24,1.83-1.03,3.3.1,4.59,1.2,2.91,2.49,5.13,5.57,7.04,8.87,4.47,6.09,8.77,12.35,14.02,17.79,8.22,8.51,15.42,17.68,20.4,28.48,4.19,10.67,6.77,21.7,6.99,33.2.15,7.88-.62,15.69-2.72,23.3-.89,3.24-.66,5.88,1.4,8.75,3.75,5.2,3.16,7.94-2.56,11.02-10.03,5.4-19.55,11.64-29.37,17.36-6.26,3.65-13.1,5.86-19.85,8.31-2.72.72-5.67.18-8.25,1.58-15.56,1.56-30.22-1.1-43.68-9.33-21.12-12.91-33.85-32.16-41.53-55.19-3.07-9.2-4.62-18.77-6.7-28.21-.42-1.88-.74-3.85-3.08-4.6-3.7-1.19-6.62-3.6-9.31-6.31-.23-.27-.46-.55-.69-.82Zm111.47-24.11c-.59-1.22-1.72-1.41-2.91-1.69-12.87-3.04-25.23-1.33-37.17,3.98-8.46,3.77-15.58,9.47-22.59,15.47-12.83,10.98-17.78,24.71-14.71,41.07,4.21,22.45,17.53,38.67,36.9,49.78,28.46,16.32,60.19,3.07,72.49-23.14,12.07-25.73,8.26-50.24-10.27-72.11-1.29-1.53-2.08-3.79-4.59-3.95-4.01-8.8-8.2-11.1-17.15-9.41Z"/>
      <path class="cls-6" d="m728.11,350.19c0,.23,0,.46,0,.7-10.13,12.83-20.51,25.48-27.63,40.37-4.3,8.99-7.48,18.41-10.72,27.8-.8,2.33-1.08,6.08-4.02,5.99-2.72-.08-2.66-3.8-3.38-6.04-7.09-22.32-19.85-40.71-37.83-55.67-7.93-6.6-15.46-13.68-23.13-20.59-1.05-.94-2.26-1.83-2.62-3.34,21.29-2.15,42.49-.88,63.66,1.58,15.48,1.8,30.58,5.39,45.65,9.2Z"/>
      <path class="cls-16" d="m728.11,350.19c-15.07-3.81-30.17-7.41-45.65-9.2-21.18-2.46-42.37-3.74-63.66-1.58-.74-.17-1.48-.33-2.22-.5-.59-3.94-4.15-5.79-6.21-8.69-4.72-6.63-9.18-13.25-8.79-21.89,16.94-1.75,33.97-2.16,50.94-1.43,24.4,1.05,48.4,4.63,71.1,14.41,1.42.61,3.02.81,4.53,1.19.53.54,1.07,1.08,1.6,1.62,3.41,7.95,3.14,15.77-.75,23.49-.41.81-.59,1.72-.88,2.59Z"/>
      <path class="cls-6" d="m610.12,469.46c-4.98-10.8-12.18-19.97-20.4-28.48-5.25-5.44-9.55-11.7-14.02-17.79,4.2-.75,6.03,2.47,8.22,4.98,7.16,8.23,14.73,16,24.1,21.77,13.85,8.54,28.58,12.1,44.67,7.65.96-.27,2.09-.96,2.83.25.66,1.06-.05,2.02-.66,2.87-5.62,7.87-13.49,11.69-22.92,12.77-7.69.88-14.73-1.68-21.83-4.02Z"/>
      <path class="cls-6" d="m453.58,458.47s-.38.1-.38.1c-.99-.2-1.89-.13-2.55.77,0,0,.04.08.04.08-.82-.29-1.79-.26-2.33-1.12,9.01-4.94,17.69-10.38,25.81-16.69,3.59-2.79,4.98.83,7.17,2.18-7.76,6.21-16.02,11.48-25.77,14.03-.79-.16-1.44.11-2,.66Z"/>
      <path class="cls-12" d="m451.47,469.34c2.69,2.71,5.61,5.13,9.31,6.31,2.33.75,2.66,2.72,3.08,4.6,2.08,9.44,3.64,19,6.7,28.21,7.68,23.04,20.41,42.28,41.53,55.19,13.45,8.23,28.12,10.89,43.68,9.33,8.54,1.88,17.11,3.67,25.62,5.7,3.8.91,7.52,2.21,11.22,3.51,1.12.4,3.63.56,2.75,2.19-1.08,1.99-1.08,5.67-4.89,5.16-2.33-.32-4.6-1.01-6.93-1.35-23.21-3.39-46.35-3.47-69.38,1.48-1.45-.85-3.05-.56-4.61-.59-10.99-.16-21.98-.27-32.89,1.44-.04-1,.58-1.67,1.13-2.4.68-.9,1.79-1.8.99-3.07-.64-1.01-1.87-.71-2.88-.76-3.91-.18-7.8.1-11.64.85-10.97,2.13-21.17,6.05-30.14,12.87-14.26-4.5-28.53-9-42.79-13.53-.46-.15-.83-.59-1.24-.89,22.75-21.03,50.27-30.25,80.59-32.59,2.27-.18,4.62-.26,7.06-1.62-2.61-1.79-5.25-1.73-7.77-1.78-12.76-.28-25.34.96-37.58,4.82-.99.31-1.97.74-3.05.41-.49-1.13.22-2,.63-2.93,4.67-10.46,10.51-20.1,19.01-27.98,1.86-1.73,4.07-3.41,4.13-6.39-1.11-4.2-5.14-4.52-8.19-5.78-18.13-7.44-37.17-12.23-55.69-18.54-2.3-.78-4.86-.82-7.3-1.2.65-1.1,1.3-2.2,1.95-3.31,4.77-2.93,9.16-6.46,14.44-8.56,9.94-3.95,20.32-5.48,30.89-6.36,4.49-.37,9.09-.1,13.46-1.54.81-.05,1.62-.1,2.43-.14.51-.13,1.03-.26,1.54-.39.83-.08,1.66-.17,2.49-.25.78-.04,1.56-.08,2.35-.12Z"/>
      <path class="cls-2" d="m698.34,644c-1.51,6.09-.69,11.91,1.95,17.55,2.03,4.33.9,6.92-3.73,8.26-4.77,1.38-9.44.73-13.6-1.9-2.36-1.49-4.07-1.31-6.32.2-8.24,5.54-16.98,9.85-27.23,10.06-9.36.19-17.25-2.67-22.77-10.63-.43-.63-1.02-1.25-.37-2.59,4.57.92,9.36,1.18,14.18,1.11,9.7-.16,18.98-2.13,27.68-6.45,15.58-7.73,23.9-20.55,26.08-37.6.29-1.94.67-3.87.84-5.82.36-4.09,1.09-7.89-3.72-10.74-3.67-2.17-5.12-6.82-6.72-10.84-.87-2.19-1.99-3.23-4.39-2.32-6.52,2.46-11.11-.44-14.88-5.47-2.79-3.71-4.7-7.82-5.72-12.35-1.52-6.77.33-11.6,6.27-15.48,6.4-4.18,13.73-5.69,21.11-6.78,10.26-1.52,20.35-.59,30.16,2.85,13.92,4.88,15.18,11.83,11.42,26.5-.9,3.53-4.43,5.74-7.58,7.68-2.48,1.52-3.52,3.24-3.85,6.47-.8,7.79-3.58,11.21-10.44,12.06-1.71.21-2.94.36-2.88,2.66.2,7.68-2.07,14.98-3.7,22.37-.82,3.7-1.85,7.35-1.8,11.19Zm-1.29-85.82c-10.1-.1-18.64,1.73-24.1,4.92-2.78,1.62-4.93,3.74-4.23,7.23.67,3.36,3.16,4.99,6.44,5.4,2.59.32,5.21.46,7.81.76,6.99.79,9.64,3,11.56,9.75.9,3.14,1.55,6.35,2.46,9.5.67,2.34,1.05,5.09,4.32,5.31,3.3.23,4.58-2.22,5.53-4.69,1.45-3.78,2.66-7.66,3.9-11.52,1.59-4.94,4.11-8.88,9.4-10.75,3.97-1.41,4.68-6.23,1.67-9.29-1.97-2.01-4.49-3.14-7.12-4.01-6.03-2-12.28-2.5-17.64-2.62Z"/>
      <path class="cls-12" d="m488.4,616.45c-.19-.14-.4-.2-.64-.19-9.39-3.23-18.79-6.47-28.18-9.71,10.01-5.05,20.06-8.89,30.64-11.2.75.86,1.43.52,2.08-.13l-.08.04c7.37-.3,14.39-2.69,21.67-3.54,23.53-2.76,47-3.5,70.3,1.88,2.2.51,5.9.48,5.83,2.9-.09,2.86-3.77,1.96-5.88,2.11-14.23,1-28.5,1.51-42.62,3.76-16.44,2.62-32.82,5.5-48.18,12.34-1.16.52-2.58.62-3.32,1.89-.3.02-.6.05-.9.07-.24-.07-.49-.15-.73-.22Z"/>
      <path class="cls-12" d="m522.13,628.45c-3.67-1.06-7.34-2.13-11.01-3.19-6.58-3.46-13.25-6.69-20.55-8.39,7.51-1.26,14.47-4.44,21.87-6.14,23.83-5.46,47.95-8,72.38-7.51,2.25.04,5.18-.68,6.42,2.46-.23.74-.45,1.47-.68,2.21-.64.11-1.38.04-1.91.34-10.09,5.55-21.52,6.14-32.4,8.73-11.74,2.79-23.13,6.52-34.12,11.5Z"/>
      <path class="cls-10" d="m490.22,595.36c-10.59,2.31-20.63,6.15-30.64,11.2,9.39,3.24,18.79,6.47,28.18,9.71-12.41.77-23.73,5.12-34.55,10.87-3.92,2.08-7.51,2.35-11.62.78-5-1.91-10.17-3.4-15.26-5.08,8.3-6.22,17.8-10.26,26.91-15.02.84-.44,2.42-.38,2.24-1.73-.15-1.15-1.57-1.11-2.53-1.46-3.46-1.28-7.42-1.46-10.12-4.48.95-1.22,2.42-1.43,3.74-1.93,9.73-3.71,19.86-5.87,30.07-7.69,10.91-1.71,21.9-1.6,32.89-1.44,1.55.02,3.16-.26,4.61.59-7.36,1.67-14.95,2.43-21.93,5.61,0,0,.08-.04.08-.04-.69.04-1.39.09-2.08.13Z"/>
      <path class="cls-12" d="m774.49,570.28c-.01,3.82-.03,7.64-.04,11.47-7.03.53-14.06,1.09-21.1,1.59-1.69.12-3.4.16-5.09.09-1.87-.08-4.07-.43-4.44-2.46-.34-1.85,1.9-2.26,3.24-2.82,8.84-3.65,18-6.24,27.43-7.86Z"/>
      <path class="cls-12" d="m773.7,600.72c-3.15,2.36-2.67,6.81-5.42,9.41-6.87-2.07-13.72-4.19-20.75-5.71-1.19-.26-2.85-.45-2.7-2.26.15-1.8,1.66-2.21,3.14-2.35,8.61-.81,17.19-.66,25.72.91Z"/>
      <path class="cls-12" d="m773.7,586.13c-.28,3.27-.57,6.54-.85,9.81-5.97-.72-11.94-1.42-17.9-2.17-1.03-.13-2.05-.41-3.05-.69-1.52-.42-2.63-1.3-2.55-3.01.09-1.81,1.62-1.86,2.89-1.98,7.15-.68,14.31-1.31,21.47-1.96Z"/>
      <path class="cls-5" d="m538.52,638.79c26.29-11.63,53.57-19.6,82.34-22.04-28.3,4.15-55.71,11.62-82.34,22.04Z"/>
      <path class="cls-5" d="m590.57,607.89c.23-.74.45-1.48.68-2.21,4.83.38,9.48-1.14,14.25-1.44,2.73-.17,5.42-.33,8.18.08-7.68,1.4-15.48,1.97-23.11,3.57Z"/>
      <path class="cls-5" d="m737.86,625.2c-3.39-.63-6.43-2.03-9.03-4.29,3.55.26,6.24,2.37,9.03,4.29Z"/>
      <path class="cls-5" d="m597.08,630.98c-1.86,1.54-3.94,2.6-6.32,3.06-.15-.15-.3-.3-.45-.44,1.82-1.64,3.94-2.65,6.33-3.16.15.18.29.36.44.55Z"/>
      <path class="cls-5" d="m586.84,636.37c-1.04.92-2.01,2-3.9,1.69.78-1.6,2.07-1.94,3.46-2.12.15.14.29.29.44.43Z"/>
      <path class="cls-5" d="m578.51,640.54c.61-1.05,1.44-1.75,3.08-1.72-.33,1.55-1.55,1.85-2.62,2.31-.16-.19-.31-.39-.46-.59Z"/>
      <path class="cls-5" d="m578.97,641.13c-.63.47-1.46,1.69-2,.79-.64-1.05.87-1.04,1.54-1.37.15.2.3.39.46.58Z"/>
      <path class="cls-5" d="m748,631.22c1.05.09,1.9.5,2.39,1.49-.15.18-.3.37-.45.55-.8-.53-1.59-1.06-2.39-1.59.15-.15.3-.29.44-.44Z"/>
      <path class="cls-5" d="m571.43,645.27c.46-.98,1.26-1.43,2.31-1.48.18.17.37.34.54.52-.8.51-1.6,1.02-2.4,1.53-.15-.19-.31-.38-.46-.57Z"/>
      <path class="cls-5" d="m744.08,628.85c.55.26,1.12.5,1.65.8.05.03-.06.6-.15.61-.86.15-1.41-.41-1.94-.97.15-.15.3-.3.44-.44Z"/>
      <path class="cls-5" d="m599.74,629.09c.3-.15.59-.43.89-.43.43-.01.61.4.35.71-.19.22-.61.27-.94.33-.05,0-.17-.34-.3-.6Z"/>
      <path class="cls-5" d="m742.83,628.55c-.56-.27-1.12-.52-1.65-.83-.05-.03.07-.6.16-.61.87-.15,1.42.41,1.95.98-.15.15-.3.3-.45.45Z"/>
      <path class="cls-5" d="m570.35,646.71c-.31.55-.82,1.32-1.36.69-.53-.63.34-1,.9-1.25.15.19.31.38.45.57Z"/>
      <path class="cls-5" d="m565.87,649.29c.28-.57.78-1.37,1.32-.82.62.63-.33.97-.81,1.29-.17-.16-.34-.31-.51-.47Z"/>
      <path class="cls-5" d="m573.74,643.79c.3-.57.81-1.35,1.35-.79.61.63-.32.99-.81,1.32-.18-.18-.36-.35-.54-.52Z"/>
      <path class="cls-5" d="m751.9,633.57c.55.25,1.4.62.88,1.23-.51.61-1.03-.12-1.33-.67.15-.19.3-.37.45-.56Z"/>
      <path class="cls-5" d="m750.39,632.7c.5.29,1.01.58,1.51.87-.15.18-.3.37-.45.56-.5-.29-1.01-.59-1.51-.88.15-.18.3-.36.45-.55Z"/>
      <path class="cls-5" d="m571.88,645.84c-.51.29-1.02.58-1.53.87-.15-.19-.3-.38-.45-.57.51-.29,1.02-.58,1.53-.88.15.19.3.38.46.57Z"/>
      <path class="cls-5" d="m596.64,630.44c.41-.29.8-.71,1.29-.13-.28.22-.57.45-.85.67-.14-.18-.29-.36-.44-.54Z"/>
      <path class="cls-5" d="m586.4,635.94c.2-.06.41-.13.61-.19-.06.21-.12.42-.18.62-.15-.14-.29-.29-.44-.43Z"/>
      <path class="cls-5" d="m743.28,628.09c.27.25.53.5.8.76-.15.15-.29.29-.44.44-.27-.25-.54-.5-.81-.74.15-.15.3-.3.45-.45Z"/>
      <path class="cls-5" d="m754.63,636.38c-.06-.2-.12-.4-.17-.6.2.05.41.11.61.16-.14.15-.29.3-.44.44Z"/>
      <path class="cls-5" d="m747.55,631.66c-.06-.21-.12-.41-.18-.62.21.06.41.12.62.18-.15.15-.29.3-.44.44Z"/>
      <path class="cls-5" d="m590.76,634.04c-.21.06-.42.12-.63.18.06-.21.12-.41.18-.62.15.15.3.29.45.44Z"/>
      <path class="cls-16" d="m442.84,600.14c2.69,3.02,6.65,3.2,10.12,4.48.95.35,2.37.31,2.53,1.46.18,1.36-1.4,1.29-2.24,1.73-9.11,4.76-18.61,8.8-26.91,15.02-5.04,2.58-9.03,6.61-13.59,9.85-1.9,1.35-3.93,3.78-6.55,1.71-2.8-2.21-1.9-5.13-.64-7.86,2.21-4.78,2.27-4.91-2.67-6.76-15.31-5.72-28.34-14.97-39.87-26.29-7.18-7.04-12.88-15.38-17.74-24.23-.65-1.19-.82-2.46-.8-3.79,12.49,5.88,25.09,11.49,38.09,16.18,2.44.88,4.82,2.02,7.52,1.94.41.3.78.74,1.24.89,14.26,4.53,28.52,9.02,42.78,13.52,2.66,1.75,5.64,2.16,8.73,2.14Z"/>
      <path class="cls-10" d="m488.4,616.45c.24.07.49.15.73.22-.24-.07-.49-.15-.73-.22Z"/>
      <path class="cls-3" d="m752.9,454.27c2.97,8.26,8.22,11.07,16.04,8.59.08.64-.05,1.43.28,1.9,7.8,11.01,6.6,23.35,5.39,35.7-1.4,6.09-3.69,11.76-8.33,16.16-6.51,6.18-15.21,5.86-21.24-.81-3.91-4.32-6.03-9.44-6.14-15.32,3.71,1.31,7.16,1.4,9.75-2.2,2.1-2.91,2.11-7.44-.02-10.24-2.54-3.34-5.84-3.42-9.42-2-.61-5.71,1.73-10.86,3.17-16.15,1.2-4.39,3.36-8.43,6-12.16,1.12-1.59,2.42-3.08,4.52-3.46Zm5.96,17.17c.23,2.1.96,3.72,3.29,3.61,2.6-.13,3.52-2.01,3.58-4.25.05-1.97-.82-3.75-3.04-3.75-2.78,0-3.52,2.16-3.83,4.4Z"/>
      <path class="cls-12" d="m738.91,500.47c.1,5.89,2.23,11,6.14,15.32,6.03,6.67,14.72,6.99,21.24.81,4.64-4.4,6.93-10.06,8.33-16.16,2.52,1.29,3.13,3.76,3.69,6.18,2.4,10.4-1.72,20.52-10.45,25.87-8.03,4.92-19.54,3.9-27.51-2.9-9.05-7.72-13.94-17.3-11.24-29.54,1.01-4.57,3.09-8.63,7.46-11.04-.38,4.05-1.47,8.25,2.36,11.44Z"/>
      <path class="cls-4" d="m738.91,500.47c-3.83-3.19-2.73-7.39-2.36-11.44.89-1,1.78-2,2.67-3,3.59-1.42,6.88-1.34,9.42,2,2.13,2.8,2.12,7.33.02,10.24-2.59,3.59-6.04,3.51-9.75,2.2Z"/>
      <path class="cls-16" d="m453.1,515.53c-.06,2.98-2.27,4.66-4.13,6.39-8.5,7.88-14.34,17.52-19.01,27.98-.42.93-1.13,1.8-.63,2.93,0,0,.07-.04.07-.04-.41.29-.82.57-1.23.86-6.66,3.7-13.5,7.2-21.2,7.72-13.52.92-27.01-8.09-32.46-21.11-7.3-17.43-5.36-33.7,6.03-48.8-1,6.73-.8,13.21,2.96,19.28,7.91,12.75,23.07,19.46,38.2,16.7,11.2-2.04,21.42-6.69,31.42-11.91Z"/>
      <path class="cls-6" d="m453.1,515.53c-10,5.22-20.22,9.87-31.42,11.91-15.13,2.76-30.29-3.95-38.2-16.7-3.76-6.06-3.96-12.55-2.96-19.28.46-.48.93-.96,1.39-1.44,2.44.38,5,.41,7.3,1.2,18.52,6.31,37.56,11.1,55.69,18.54,3.05,1.25,7.09,1.57,8.19,5.78Z"/>
      <path class="cls-6" d="m442.66,470.26c-4.38,1.44-8.97,1.17-13.46,1.54-10.57.87-20.95,2.41-30.89,6.36-5.29,2.1-9.68,5.63-14.44,8.56.21-4.32,2.72-7.87,4.03-11.82.45-1.36,1.32-2.84.04-4.02-1.14-1.06-2.52-.09-3.68.36-5.69,2.19-10.23,6.12-15.46,10.83,2.49-7.93,6.48-13.87,10.36-19.84,1.99-3.06,4.33-5.91,6.58-8.8,2.71-3.49,3.74-3.44,6.51.15,6.69,8.68,15.27,14.44,26.24,15.66,6.35.7,12.82.21,19.24.32,1.66.03,3.43-.44,4.94.71Z"/>
      <path class="cls-6" d="m451.47,469.34c-.78.04-1.56.08-2.35.12.55-.31,1.1-.63,1.66-.94.23.27.46.55.69.82Z"/>
      <path class="cls-6" d="m446.63,469.72c-.51.13-1.03.26-1.54.39.51-.13,1.03-.26,1.54-.39Z"/>
      <path class="cls-12" d="m428.16,553.65c.41-.29.82-.57,1.23-.86-.41.29-.82.57-1.23.86Z"/>
      <path class="cls-15" d="m579.39,453.83c2.52.16,3.3,2.42,4.59,3.95,18.52,21.87,22.34,46.38,10.27,72.11-12.3,26.21-44.02,39.47-72.49,23.14-19.37-11.11-32.69-27.34-36.9-49.78-3.07-16.36,1.88-30.09,14.71-41.07,7.01-6,14.13-11.7,22.59-15.47,11.94-5.32,24.31-7.03,37.17-3.98,1.18.28,2.32.47,2.91,1.69-4.56,2.59-7.03,6.46-7.2,11.74-5.84-1.93-10.9.3-15.44,3.49-11.21,7.89-15.02,20.01-17.85,32.57-.06.28.33.66.52.99-1.12,1.03-2.23,2.07-3.35,3.1-7.14,2.3-12.39,10.76-12.12,19.19.82,25.26,31.83,48.43,57.37,34.47,7.36-4.03,13.91-8.88,17.53-16.76,3.84-8.34,1.67-17.53-5.18-22.48,2.57-14.88,2-29.29-6.51-42.48,6.91-2.35,9.56-7.47,9.37-14.43Z"/>
      <path class="cls-13" d="m579.39,453.83c.2,6.96-2.46,12.08-9.37,14.43-8.67,1.13-13.85-3.06-14.98-12.1.17-5.28,2.64-9.15,7.2-11.74,8.95-1.69,13.14.61,17.15,9.41Z"/>
      <path class="cls-10" d="m450.65,459.33c.66-.9,1.56-.97,2.55-.77-.71.71-1.58.92-2.55.77Z"/>
      <path class="cls-10" d="m453.58,458.47c.56-.55,1.2-.82,2-.66-.54.58-1.24.73-2,.66Z"/>
      <path class="cls-6" d="m442.84,600.14c-3.09.02-6.08-.39-8.73-2.14,8.97-6.81,19.17-10.74,30.14-12.87,3.84-.74,7.73-1.03,11.64-.85,1.01.05,2.24-.25,2.88.76.81,1.27-.3,2.17-.99,3.07-.56.73-1.17,1.41-1.13,2.4-10.21,1.82-20.34,3.98-30.07,7.69-1.32.5-2.79.71-3.74,1.93Z"/>
      <path class="cls-12" d="m697.04,558.18c5.36.13,11.61.63,17.64,2.62,2.63.87,5.15,2,7.12,4.01,3.01,3.06,2.29,7.89-1.67,9.29-5.29,1.87-7.81,5.81-9.4,10.75-1.24,3.86-2.45,7.74-3.9,11.52-.95,2.46-2.22,4.91-5.53,4.69-3.28-.22-3.65-2.97-4.32-5.31-.9-3.14-1.56-6.35-2.46-9.5-1.92-6.75-4.58-8.97-11.56-9.75-2.6-.29-5.21-.44-7.81-.76-3.28-.41-5.77-2.04-6.44-5.4-.7-3.49,1.45-5.61,4.23-7.23,5.47-3.2,14.01-5.02,24.1-4.92Z"/>
      <path class="cls-13" d="m490.22,595.36c.69-.04,1.39-.09,2.08-.13-.65.66-1.33,1-2.08.13Z"/>
      <path class="cls-13" d="m758.86,471.44c.31-2.24,1.05-4.4,3.83-4.4,2.22,0,3.09,1.78,3.04,3.75-.06,2.24-.98,4.12-3.58,4.25-2.34.12-3.06-1.5-3.29-3.61Z"/>
      <path class="cls-3" d="m555.04,456.15c1.13,9.05,6.32,13.23,14.98,12.1,8.51,13.19,9.08,27.59,6.51,42.47-1.67,5.8-3.73,11.44-7.3,16.37-11.53,15.92-32.93,14.56-42.29-2.71-2.51-4.63-4.18-9.56-4.7-14.84,3.5,1.1,6.89,1.34,9.91-1.29,3.56-3.1,4.57-8.6,2.25-12.4-2.32-3.8-6.62-4.74-12.13-2.65-.18-.33-.58-.71-.52-.99,2.83-12.57,6.64-24.68,17.85-32.57,4.54-3.19,9.6-5.42,15.44-3.49Zm10.09,19.58c-.33-2.11-1.17-3.83-3.57-3.85-2.55-.02-3.7,1.76-3.83,4.01-.13,2.24,1.15,3.71,3.47,3.8,2.63.1,3.47-1.77,3.93-3.96Z"/>
      <path class="cls-12" d="m522.24,509.55c.52,5.28,2.19,10.21,4.7,14.84,9.36,17.27,30.76,18.64,42.29,2.71,3.57-4.93,5.63-10.58,7.3-16.37,6.85,4.95,9.02,14.14,5.18,22.48-3.63,7.87-10.17,12.73-17.53,16.76-25.54,13.97-56.55-9.2-57.37-34.47-.27-8.43,4.98-16.89,12.12-19.19-.44,4.8-.85,9.6,3.31,13.25Z"/>
      <path class="cls-13" d="m522.24,509.55c-4.17-3.65-3.75-8.44-3.31-13.25,1.12-1.03,2.23-2.07,3.35-3.1,5.5-2.09,9.81-1.14,12.13,2.65,2.32,3.81,1.32,9.3-2.25,12.4-3.03,2.63-6.41,2.39-9.91,1.29Z"/>
      <path class="cls-13" d="m565.13,475.73c-.46,2.19-1.3,4.06-3.93,3.96-2.33-.09-3.61-1.55-3.47-3.8.13-2.25,1.27-4.03,3.83-4.01,2.41.02,3.25,1.74,3.57,3.85Z"/>
    </g>
  </g>
</svg>