<?xml version="1.0" encoding="UTF-8"?>
<svg id="Layer_2" data-name="Layer 2" xmlns="http://www.w3.org/2000/svg" viewBox="0 0 237.86 538.5">
  <defs>
    <style>
      .cls-1 {
        fill: #3d0a27;
      }

      .cls-1, .cls-2, .cls-3, .cls-4, .cls-5, .cls-6 {
        stroke-width: 0px;
      }

      .cls-2 {
        fill: #e24b3b;
      }

      .cls-3 {
        fill: #c23373;
      }

      .cls-4 {
        fill: #ffba86;
      }

      .cls-5 {
        fill: #f5edda;
      }

      .cls-6 {
        fill: #f6635c;
      }
    </style>
  </defs>
  <g id="Layer_1-2" data-name="Layer 1">
    <g>
      <path class="cls-5" d="m161.7,70.83c6.73,13.61,11.06,28.08,15.15,42.61,6.74,23.94,11.66,48.23,10.35,73.28-1.4,26.79-5.64,53.22-11.43,79.4-3.62,16.38-7.89,32.57-13.22,48.5-1.1,3.29-2.61,4.41-5.98,4.23-4.98-.27-10-.22-14.99,0-2.89.13-3.51-.87-3.57-3.64-.24-11.65.53-23.33-.69-34.96-.57-5.46-2.67-10.32-6.54-14.23-7.42-7.49-17.95-6.76-24.84,1.63-3.98,4.84-5.53,10.57-5.6,16.69-.11,9.99-.19,19.99.01,29.99.07,3.34-.57,4.79-4.28,4.54-4.81-.33-9.67-.27-14.49,0-3.24.18-4.54-1.03-5.58-4.08-10.44-30.84-17.33-62.47-21.72-94.69-2.75-20.18-4.4-40.4-2.04-60.75,2.8-24.04,8.43-47.4,17.02-70.04,2.29-6.04,4.4-12.14,7.36-17.9,27.59.07,55.18.14,82.77.16.77,0,1.54-.48,2.31-.74Zm-85.55,99.16c0,23.95,18.74,42.69,42.71,42.72,23.96.03,43.19-19.34,43.22-43.52.02-23.35-19.52-43.17-42.71-43.32-23.99-.15-43.22,19.48-43.22,44.12Z"/>
      <path class="cls-6" d="m131.78,356.68c1.31-4.81,2.61-9.62,3.94-14.5,2.16.36,2.61,2.37,3.52,3.8,11.98,18.62,13.65,39.08,9.55,60.1-8.66,44.38-19.82,88.2-30.54,132.43-1.83-7.79-3.74-15.55-5.49-23.36-7.68-34.23-15.51-68.43-22.88-102.73-3.89-18.11-4.82-36.31,2.3-54.06,2.36-5.88,5.19-11.5,9.62-17.17,1.5,5.18,2.84,9.81,4.18,14.43-4.38,6.26-5.49,13.55-5.36,20.8.22,12.6,4.05,24.51,9.2,35.89,2.67,5.9,4.75,12.19,8.69,17.96,3.51-4.97,5.05-10.12,7.28-14.9,6.72-14.43,12.05-29.27,10.35-45.59-.48-4.58-.12-9.67-4.36-13.09Z"/>
      <path class="cls-3" d="m225.1,372.44c-3.19-26.11-18.87-45.02-44.24-52.48-3.49-1.03-4.51-1.91-3.27-5.68,6.86-20.88,11.56-42.31,15.35-63.93.6-3.41,1.2-4.45,4.47-2.22,28.42,19.41,42.58,45.9,40.18,80.63-1.06,15.42-5.58,29.88-12.5,43.68Z"/>
      <path class="cls-3" d="m15.91,359.5c-.54.97-1.08,1.93-1.61,2.89-.35,2.56-1.32,4.5-4.42,4.18-.51-1.21-1.02-2.43-1.54-3.64,0,0,.02.04.02.04-.08-.6-.16-1.21-.25-1.82-4.69-16.02-7.86-32.25-7-49.06.02-.45-.35-.92-.53-1.38.21-1.03.43-2.07.64-3.1,1.39-1.14,1.2-2.47.46-3.87.2-.71.41-1.41.61-2.12.78-.53.96-1.15.27-1.89.23-.71.47-1.41.7-2.12,3.07-8.81,7.56-16.94,11.93-25.14,0,0-.11.1-.11.1,3.36-2.81,5.91-6.29,8.14-10.02,0,0-.05.05-.05.05,3.7-2.66,7.29-5.43,10.01-9.15,0,0-.1.11-.1.11,1.59-.88,3.21-1.73,4.77-2.66q5.54-3.32,6.67,2.9c.42,2.28.78,4.57,1.25,6.84,3.65,17.39,7.94,34.63,13.56,51.5,1.37,4.11.68,6.09-3.83,7.02-4.74.97-9.1,3.38-13.03,6.1-5.22,3.61-11.6,6.04-14.37,12.5-.23.25-.46.49-.69.74-1.75.92-2.98,2.24-3.32,4.25-.03.35-.21.6-.53.75-4.01,4.63-7.33,9.6-7.65,16Z"/>
      <path class="cls-3" d="m161.7,70.83c-.77.26-1.54.74-2.31.74-27.59-.03-55.18-.1-82.77-.16,8.48-21.42,19.5-41.44,32.87-60.18,2.12-2.97,4.5-5.78,6.53-8.8,2.49-3.69,4.32-2.8,6.66.27,12.4,16.34,23.36,33.55,32.06,52.15,2.46,5.26,4.64,10.65,6.95,15.99Z"/>
      <path class="cls-4" d="m131.78,356.68c4.25,3.42,3.88,8.51,4.36,13.09,1.71,16.31-3.63,31.15-10.35,45.59-2.23,4.79-3.77,9.93-7.28,14.9-3.94-5.77-6.02-12.05-8.69-17.96-5.14-11.38-8.98-23.29-9.2-35.89-.12-7.25.99-14.54,5.36-20.8,2.09,6.73,5.65,12.62,9.93,18.19,2.29,2.98,3.81,2.68,5.99-.03,4.18-5.21,7.31-10.97,9.87-17.09Z"/>
      <path class="cls-3" d="m119.04,349.78c-6.26-21.71-4.83-42.4-4.87-62.98,0-2.31-.21-4.67.8-6.88.83-1.82,1.51-4.04,3.88-4.04,2.54,0,3.55,2.17,4.34,4.23.35.92.65,1.93.65,2.91.06,19.27,1.08,38.59-2.5,57.7-.48,2.57-1.28,5.09-2.3,9.07Z"/>
      <path class="cls-2" d="m28.11,337.76c2.77-6.46,9.15-8.9,14.37-12.5,3.93-2.72,8.29-5.12,13.03-6.1,4.5-.93,5.19-2.91,3.83-7.02-5.61-16.87-9.9-34.11-13.56-51.5-.48-2.27-.84-4.56-1.25-6.84q-1.13-6.23-6.67-2.9c-1.56.93-3.18,1.78-4.77,2.66.28-.4.48-.9.85-1.19,3.09-2.44,6.38-6.62,9.89-5.66,2.73.75,1.65,6.22,2.33,9.56,3.82,18.88,8.32,37.58,14.39,55.88,2.04,6.15,2.02,6.17-3.97,7.97-11.08,3.32-20.18,9.83-28.46,17.65Z"/>
      <path class="cls-2" d="m.59,310.71c.19.46.55.93.53,1.38-.86,16.81,2.31,33.04,7,49.06-6.95-16.15-9.37-32.98-7.53-50.44Z"/>
      <path class="cls-2" d="m15.2,272.47c-4.37,8.19-8.86,16.33-11.93,25.14,1.74-9.44,5.84-17.76,11.93-25.14Z"/>
      <path class="cls-2" d="m9.89,366.57c3.1.32,4.06-1.62,4.42-4.18,1.04,3.77-.94,7.24-1.64,11.14-.93-2.32-1.85-4.64-2.78-6.96Z"/>
      <path class="cls-2" d="m15.91,359.5c.32-6.4,3.64-11.36,7.65-16-2.87,5.18-5.68,10.39-7.65,16Z"/>
      <path class="cls-2" d="m33.19,253.45c-2.73,3.72-6.31,6.5-10.01,9.15,2.68-3.77,5.92-6.92,10.01-9.15Z"/>
      <path class="cls-2" d="m23.24,262.55c-2.23,3.74-4.78,7.21-8.14,10.02,1.85-4.05,4.61-7.35,8.14-10.02Z"/>
      <path class="cls-2" d="m24.09,342.75c.34-2.01,1.58-3.33,3.32-4.25-.9,1.58-1.62,3.3-3.32,4.25Z"/>
      <path class="cls-2" d="m1.69,303.74c.75,1.4.94,2.73-.46,3.87-.33-1.35-.14-2.63.46-3.87Z"/>
      <path class="cls-2" d="m2.57,299.72c.69.74.51,1.36-.27,1.89.09-.63.18-1.26.27-1.89Z"/>
      <polygon class="cls-2" points="8.37 362.96 8.35 362.92 8.02 363.01 8.37 362.96"/>
      <path class="cls-3" d="m76.15,169.99c0-24.64,19.23-44.27,43.22-44.12,23.2.15,42.74,19.96,42.71,43.32-.02,24.18-19.25,43.55-43.22,43.52-23.97-.03-42.71-18.77-42.71-42.72Zm42.41,32.08c17.72.27,32.27-13.78,32.59-31.46.33-18.32-13.43-32.82-31.42-33.1-18.16-.28-32.63,13.59-32.94,31.57-.3,17.77,14.1,32.72,31.77,32.99Z"/>
      <path class="cls-1" d="m118.56,202.07c-17.67-.27-32.07-15.22-31.77-32.99.31-17.97,14.78-31.84,32.94-31.57,17.99.27,31.76,14.77,31.42,33.1-.32,17.68-14.88,31.72-32.59,31.46Z"/>
    </g>
  </g>
</svg>