<?xml version="1.0" encoding="utf-8"?>
<!-- Generator: Adobe Illustrator 27.9.0, SVG Export Plug-In . SVG Version: 6.00 Build 0)  -->
<svg version="1.1" id="Layer_2_00000158020985156746950860000010957298594777423770_"
	 xmlns="http://www.w3.org/2000/svg" xmlns:xlink="http://www.w3.org/1999/xlink" x="0px" y="0px" viewBox="0 0 733.3 191.1"
	 style="enable-background:new 0 0 733.3 191.1;" xml:space="preserve">
<style type="text/css">
	.st0{fill:#F5EDDA;}
	.st1{fill:#F6635C;}
	.st2{fill:#C23373;}
	.st3{fill:#FFBA86;}
	.st4{fill:#E24B3B;}
	.st5{fill:#3D0A27;}
</style>
<g id="Layer_1-2">
	<text transform="matrix(1 0 0 1 96.5369 -171.3177)" style="fill:#FFFFFF; font-family:'ArialMT'; font-size:102px;">r</text>
	<text transform="matrix(1 0 0 1 133.7869 -171.3177)" style="fill:#FFFFFF; font-family:'ArialMT'; font-size:102px;">o</text>
	
		<text transform="matrix(1 0 0 1 195.0968 -171.3177)" style="fill:#FFFFFF; font-family:'ArialMT'; font-size:102px; letter-spacing:3;">c</text>
	
		<text transform="matrix(1 0 0 1 246.3468 -171.3177)" style="fill:#FFFFFF; font-family:'ArialMT'; font-size:102px; letter-spacing:-2;">k</text>
	<text transform="matrix(1 0 0 1 295.5068 -171.3177)" style="fill:#FFFFFF; font-family:'FuturaPT-Book'; font-size:102px;">e</text>
	<text transform="matrix(1 0 0 1 352.8269 -171.3177)" style="fill:#FFFFFF; font-family:'ArialMT'; font-size:102px;">t.d</text>
	
		<text transform="matrix(1 0 0 1 473.3568 -171.3177)" style="fill:#FFFFFF; font-family:'ArialMT'; font-size:102px; letter-spacing:-2;">e</text>
	<text transform="matrix(1 0 0 1 528.0469 -171.3177)" style="fill:#FFFFFF; font-family:'ArialMT'; font-size:102px;">v</text>
	<text transform="matrix(1 0 0 1 1021 -187)" style="font-family:'MyriadPro-Regular'; font-size:12px;">rocket.dev</text>
	<rect x="90" y="-203" style="fill:none;" width="494" height="2"/>
	<g>
		<path class="st0" d="M135.6-272.4c-5.7,8.6-12.7,16-19.9,23.3C104-237,91.4-225.9,76.2-218.2C60-210,43-203.5,25.7-198
			c-10.9,3.4-21.8,6.4-33,8.7c-2.3,0.5-3.5,0-4.5-2.1c-1.5-3-3.3-5.9-5.1-8.8c-1.1-1.7-0.7-2.4,0.9-3.3c6.8-4.1,13.9-7.6,20.3-12.2
			c3-2.2,5.2-5.1,6.1-8.7c1.9-6.9-2.1-12.8-9.4-14c-4.2-0.7-8.1,0.3-11.7,2.4c-5.9,3.3-11.8,6.7-17.6,10.2c-1.9,1.2-3,1.3-4.1-1
			c-1.4-2.9-3.1-5.8-4.9-8.5c-1.2-1.8-0.9-3,0.5-4.7c14.6-16.6,30.8-31.3,48.3-44.8c10.9-8.5,22.2-16.3,35-21.8
			c15.1-6.5,30.7-11.1,46.9-13.7c4.3-0.7,8.6-1.5,13-1.7c9.3,16.2,18.6,32.5,27.9,48.7C134.7-273.1,135.2-272.8,135.6-272.4
			L135.6-272.4z M48.4-289.1c-14.1,8.1-18.7,25.5-10.6,39.6c8.1,14.1,26,18.8,40.2,10.6c13.7-7.9,18.8-26.1,11-39.8
			C81-292.8,62.9-297.4,48.4-289.1L48.4-289.1z"/>
		<path class="st1" d="M-42.4-193.2c3.3-0.9,6.5-1.7,9.8-2.6c0.5,1.4-0.5,2.3-1,3.4c-6.9,13.3-18.3,21.2-32.1,26
			c-29,9.9-58.5,18.2-88.1,26.9c3.9-3.7,7.9-7.5,11.9-11.1c17.5-16.1,34.9-32.3,52.6-48.2c9.3-8.4,19.7-15.1,32.5-17
			c4.3-0.6,8.5-0.8,13.3-0.2c-2.5,2.6-4.8,5-7.1,7.3c-5.2-0.4-9.8,1.4-14,3.9c-7.3,4.4-13,10.7-18,17.6c-2.6,3.6-5.6,6.9-7.6,11.2
			c4.1,0.4,7.7-0.5,11.2-0.8c10.8-0.9,21.3-2.8,30.3-9.4C-46-188-42.9-189.5-42.4-193.2L-42.4-193.2z"/>
		<path class="st2" d="M-20-133C-5.8-143.7,0-159.4-4.2-176.8c-0.6-2.4-0.4-3.3,2.2-3.8c14.6-3,28.8-7.5,42.8-12.6
			c2.2-0.8,3-0.8,2.8,1.9c-1.8,23.3-12.5,40.6-33.8,50.9C0.4-135.9-9.6-133.7-20-133L-20-133z"/>
		<path class="st2" d="M-83.3-260.3c-0.8,0-1.5,0-2.2,0c-1.6,0.7-3.1,0.8-3.9-1.2c0.5-0.7,1.1-1.4,1.6-2.1l0,0
			c0.3-0.2,0.7-0.5,1-0.8c7.8-8.2,16.3-15.5,26.4-20.7c0.3-0.1,0.4-0.5,0.6-0.8c0.7-0.2,1.4-0.5,2-0.7c1.1,0.4,1.9-0.1,2.4-1
			c0.5-0.1,1-0.2,1.4-0.4c0.6,0.3,1,0.2,1.2-0.5c0.5-0.1,1-0.2,1.5-0.3c6.2-1.2,12.5-1.3,18.8-1.5l-0.1,0c2.8,1,5.7,1.3,8.6,1.4
			l-0.1,0c2.8,1.3,5.7,2.4,8.8,2.8l-0.1,0c1.1,0.6,2.1,1.3,3.2,1.9c2.5,1.4,2.7,3.1,0.6,4.9c-1.2,1-2.4,2-3.6,3
			c-9,8-17.6,16.4-25.7,25.4c-1.9,2.2-3.3,2.5-5.4,0.1c-2.2-2.4-5.1-4.2-8-5.6c-3.9-1.8-7.5-4.8-12.2-4.2c-0.2,0-0.4-0.1-0.7-0.2
			c-1.1-0.7-2.3-1-3.6-0.5c-0.2,0.1-0.4,0.1-0.6-0.1C-75.4-262-79.4-262.3-83.3-260.3L-83.3-260.3z"/>
		<path class="st2" d="M135.6-272.4c-0.4-0.4-1-0.6-1.2-1.1c-9.3-16.2-18.6-32.4-27.9-48.7c15.5-2.3,30.9-2.6,46.5-1.1
			c2.5,0.2,4.9,0.7,7.4,0.9c3,0.2,3.1,1.6,2.1,4c-5.4,12.8-11.8,25.1-19.8,36.5C140.4-278.7,138-275.6,135.6-272.4L135.6-272.4z"/>
		<path class="st3" d="M-42.4-193.2c-0.6,3.6-3.7,5.2-6.2,7c-9,6.5-19.5,8.4-30.3,9.4c-3.6,0.3-7.1,1.1-11.2,0.8
			c2.1-4.3,5-7.6,7.6-11.2c4.9-6.9,10.6-13.2,18-17.6c4.2-2.5,8.9-4.3,14-3.9c-3.2,3.5-5.5,7.6-7.3,12c-1,2.4-0.3,3.1,2.1,3.5
			C-51.3-192.5-46.8-192.6-42.4-193.2L-42.4-193.2z"/>
		<path class="st2" d="M-42.6-203c10.6-11,23.3-17.2,35.3-24.2c1.4-0.8,2.7-1.7,4.3-1.9c1.4-0.1,2.9-0.5,3.7,0.9
			c0.9,1.5-0.1,2.8-1,4c-0.4,0.5-0.9,1-1.5,1.4c-11.3,6.6-22.3,13.7-34.7,18.1C-38.2-204.1-39.9-203.8-42.6-203z"/>
		<path class="st4" d="M-66.4-260.5c4.7-0.6,8.3,2.4,12.2,4.2c2.9,1.4,5.8,3.1,8,5.6c2.1,2.3,3.5,2.1,5.4-0.1
			c8-9,16.7-17.4,25.7-25.4c1.2-1,2.4-2,3.6-3c2.2-1.8,2-3.5-0.6-4.9c-1.1-0.6-2.1-1.3-3.2-1.9c0.3,0,0.7,0,1,0.1
			c2.5,1,6.1,1.5,6.7,3.9c0.5,1.9-3.1,3.1-4.8,4.6c-9.8,8.6-19.2,17.6-27.9,27.4c-2.9,3.3-2.9,3.3-6,0.4
			C-52-255.1-59-258.3-66.4-260.5L-66.4-260.5z"/>
		<path class="st4" d="M-59.8-285.8c-0.2,0.3-0.4,0.6-0.6,0.8c-10.2,5.2-18.6,12.6-26.4,20.7C-79.7-273.9-70.7-281-59.8-285.8z"/>
		<path class="st4" d="M-32.4-290.2c-6.3,0.2-12.6,0.3-18.8,1.5C-45.1-290.8-38.8-291.3-32.4-290.2z"/>
		<path class="st4" d="M-89.5-261.4c0.9,1.9,2.3,1.8,3.9,1.2c-1.9,1.9-4.6,1.9-7.1,2.8C-91.6-258.8-90.5-260.1-89.5-261.4z"/>
		<path class="st4" d="M-83.3-260.3c3.9-2,7.9-1.7,12-0.9C-75.3-261.1-79.3-261-83.3-260.3z"/>
		<path class="st4" d="M-15.1-286c-3.1-0.3-5.9-1.5-8.8-2.8C-20.8-288.5-17.8-287.7-15.1-286z"/>
		<path class="st4" d="M-23.8-288.8c-2.9,0-5.8-0.4-8.6-1.4C-29.5-290.5-26.6-290-23.8-288.8z"/>
		<path class="st4" d="M-70.7-261.2c1.3-0.5,2.5-0.2,3.6,0.5C-68.3-260.6-69.5-260.5-70.7-261.2z"/>
		<path class="st4" d="M-55.3-287.5c-0.6,0.9-1.3,1.5-2.4,1C-57.1-287.1-56.3-287.5-55.3-287.5z"/>
		<path class="st4" d="M-52.7-288.4c-0.2,0.7-0.6,0.8-1.2,0.5C-53.5-288-53.1-288.2-52.7-288.4z"/>
		<polygon class="st4" points="-87.9,-263.5 -87.8,-263.6 -88,-263.7 		"/>
		<path class="st2" d="M48.4-289.1c14.5-8.4,32.5-3.7,40.6,10.4c7.8,13.7,2.8,31.9-11,39.8c-14.2,8.2-32.1,3.4-40.2-10.6
			C29.7-263.6,34.4-281,48.4-289.1L48.4-289.1z M44-253.3c5.8,10.5,19,14.3,29.5,8.5c10.9-6,14.7-19,8.8-29.7
			c-6-10.8-19-14.6-29.7-8.7C42-277.3,38.1-263.8,44-253.3z"/>
		<path class="st5" d="M44-253.3c-5.8-10.5-1.9-24,8.6-29.8c10.7-5.9,23.7-2.1,29.7,8.7c5.9,10.7,2.1,23.6-8.8,29.7
			C63-239,49.8-242.8,44-253.3z"/>
	</g>
</g>
</svg>
