<?xml version="1.0" encoding="UTF-8"?>
<svg id="Layer_2" data-name="Layer 2" xmlns="http://www.w3.org/2000/svg" viewBox="0 0 856.36 191.15">
  <defs>
    <style>.cls-1 {
  fill: #3d0a27;
}

.cls-1, .cls-2, .cls-3, .cls-4, .cls-5, .cls-6 {
  stroke-width: 0;
}

.cls-2 {
  fill: #e24b3b;
}

.cls-3 {
  fill: #f6635c;
}

.cls-4 {
  fill: #ffba86;
}

.cls-5 {
  fill: #f5edda;
}

.cls-6 {
  fill: #c23373;
}

</style>
  </defs>
  <g id="Layer_2-2" data-name="Layer 2">
    <g id="Layer_1-2" data-name="Layer 1-2">
      <g>
        <path class="cls-5" d="m289.39,51.77c-5.71,8.56-12.75,16-19.9,23.32-11.78,12.07-24.38,23.18-39.54,30.89-16.21,8.25-33.17,14.71-50.51,20.18-10.85,3.42-21.8,6.39-32.96,8.66-2.31.47-3.47-.04-4.51-2.08-1.53-3.02-3.26-5.95-5.08-8.8-1.06-1.65-.68-2.36.93-3.33,6.76-4.09,13.88-7.59,20.3-12.25,3.02-2.19,5.16-5.06,6.14-8.66,1.88-6.89-2.11-12.83-9.37-14.04-4.19-.7-8.08.33-11.7,2.36-5.91,3.32-11.81,6.66-17.61,10.16-1.94,1.17-3.01,1.29-4.11-.98-1.43-2.94-3.11-5.77-4.9-8.51-1.2-1.84-.93-3.02.51-4.66,14.58-16.57,30.82-31.34,48.26-44.82,10.92-8.45,22.24-16.27,34.99-21.77,15.07-6.5,30.69-11.1,46.9-13.72,4.32-.7,8.62-1.53,13-1.74,9.3,16.23,18.6,32.45,27.93,48.67.26.45.8.74,1.22,1.1v.02Zm-87.21-16.67c-14.07,8.11-18.73,25.46-10.63,39.55,8.1,14.08,25.98,18.82,40.2,10.64,13.72-7.89,18.75-26.08,10.98-39.76-8.03-14.14-26.08-18.79-40.55-10.44h0Z"></path>
        <path class="cls-3" d="m111.37,131c3.27-.86,6.53-1.72,9.85-2.6.52,1.39-.51,2.33-1.04,3.36-6.88,13.34-18.33,21.25-32.06,25.96-28.99,9.94-58.51,18.23-88.12,26.91,3.95-3.71,7.87-7.46,11.86-11.13,17.51-16.1,34.94-32.28,52.59-48.23,9.32-8.42,19.69-15.13,32.53-16.96,4.26-.61,8.51-.84,13.34-.16-2.53,2.64-4.8,4.99-7.06,7.34-5.16-.45-9.81,1.36-14.03,3.89-7.33,4.39-13.02,10.68-17.96,17.56-2.56,3.57-5.55,6.92-7.6,11.19,4.11.38,7.65-.46,11.22-.77,10.75-.94,21.27-2.83,30.28-9.36,2.53-1.83,5.64-3.34,6.21-7h0Z"></path>
        <path class="cls-6" d="m133.71,191.15c14.25-10.71,20.05-26.33,15.84-43.76-.58-2.39-.41-3.3,2.23-3.84,14.59-3.04,28.76-7.54,42.75-12.63,2.2-.8,3.02-.8,2.82,1.87-1.78,23.27-12.54,40.55-33.75,50.9-9.42,4.6-19.44,6.84-29.89,7.45h0Z"></path>
        <path class="cls-6" d="m70.48,63.9c-.75,0-1.5.02-2.24.03-1.63.66-3.09.75-3.95-1.18.54-.71,1.08-1.42,1.62-2.14l-.02.02c.33-.25.65-.51.98-.76,7.82-8.18,16.28-15.54,26.44-20.72.27-.14.42-.51.63-.78.68-.22,1.36-.45,2.04-.67,1.14.43,1.86-.13,2.43-1.04.48-.12.97-.24,1.45-.36.58.28,1,.17,1.21-.48.49-.1.99-.2,1.48-.31,6.21-1.18,12.51-1.3,18.8-1.51l-.1-.03c2.79,1.02,5.7,1.34,8.64,1.39h-.05c2.81,1.26,5.66,2.43,8.76,2.77l-.1-.02c1.06.63,2.1,1.3,3.18,1.9,2.55,1.42,2.73,3.05.55,4.9-1.2,1.02-2.42,2-3.6,3.05-8.98,8.04-17.65,16.39-25.66,25.4-1.95,2.19-3.35,2.46-5.42.13-2.18-2.45-5.07-4.2-7.99-5.59-3.88-1.84-7.47-4.77-12.21-4.2-.22-.05-.44-.1-.67-.16-1.13-.72-2.32-.99-3.62-.51-.22.1-.43.08-.62-.06-4.08-.79-8.12-1.05-11.98.93h.02Z"></path>
        <path class="cls-6" d="m289.39,51.77c-.41-.36-.96-.65-1.22-1.1-9.33-16.21-18.63-32.44-27.93-48.67,15.45-2.28,30.94-2.58,46.48-1.07,2.47.24,4.91.68,7.38.86,3.01.21,3.11,1.59,2.1,4-5.4,12.82-11.8,25.08-19.78,36.49-2.26,3.23-4.69,6.34-7.03,9.5h0Z"></path>
        <path class="cls-4" d="m111.37,131c-.57,3.65-3.68,5.16-6.21,7-9,6.53-19.53,8.42-30.28,9.36-3.57.31-7.11,1.15-11.22.77,2.05-4.27,5.04-7.62,7.6-11.19,4.94-6.88,10.64-13.16,17.96-17.56,4.22-2.53,8.87-4.34,14.03-3.89-3.24,3.51-5.5,7.59-7.32,11.99-.97,2.35-.28,3.14,2.05,3.51,4.47.69,8.92.58,13.38,0h.01Z"></path>
        <path class="cls-6" d="m111.11,121.18c10.63-11.03,23.27-17.19,35.34-24.19,1.35-.78,2.67-1.7,4.31-1.86,1.35-.13,2.88-.48,3.69.91.87,1.49-.07,2.82-1.01,3.98-.42.52-.92,1.04-1.49,1.37-11.3,6.56-22.3,13.7-34.73,18.07-1.68.59-3.42.97-6.11,1.72Z"></path>
        <path class="cls-2" d="m87.37,63.7c4.74-.56,8.32,2.36,12.21,4.2,2.93,1.39,5.82,3.14,7.99,5.59,2.07,2.33,3.47,2.06,5.42-.13,8.01-9.01,16.68-17.37,25.66-25.4,1.17-1.05,2.4-2.04,3.6-3.05,2.18-1.85,2-3.48-.55-4.9-1.08-.6-2.12-1.26-3.18-1.9.33.03.69-.02.99.09,2.48.99,6.05,1.51,6.67,3.89.49,1.86-3.09,3.07-4.82,4.6-9.8,8.64-19.25,17.61-27.94,27.37-2.92,3.28-2.94,3.28-6.02.36-5.7-5.38-12.61-8.52-20.01-10.74l-.02.02Z"></path>
        <path class="cls-2" d="m93.94,38.38c-.21.27-.36.64-.63.78-10.17,5.19-18.62,12.55-26.44,20.72,7.13-9.55,16.19-16.67,27.07-21.5Z"></path>
        <path class="cls-2" d="m121.35,34.01c-6.29.21-12.59.32-18.8,1.51,6.13-2.17,12.41-2.59,18.8-1.51Z"></path>
        <path class="cls-2" d="m64.28,62.76c.86,1.93,2.33,1.84,3.95,1.18-1.86,1.89-4.57,1.9-7.1,2.81,1.05-1.33,2.1-2.66,3.15-3.99Z"></path>
        <path class="cls-2" d="m70.48,63.9c3.87-1.98,7.91-1.71,11.98-.93-4.01.07-8.02.18-11.98.93Z"></path>
        <path class="cls-2" d="m138.61,38.14c-3.11-.34-5.95-1.51-8.76-2.78,3.12.3,6.07,1.13,8.76,2.78Z"></path>
        <path class="cls-2" d="m129.9,35.37c-2.95-.04-5.85-.37-8.64-1.39,3-.29,5.88.22,8.64,1.39Z"></path>
        <path class="cls-2" d="m83.08,63.03c1.3-.48,2.49-.2,3.62.51-1.23,0-2.49.16-3.62-.51Z"></path>
        <path class="cls-2" d="m98.41,36.66c-.57.91-1.28,1.47-2.43,1.04.68-.65,1.5-.98,2.43-1.04Z"></path>
        <path class="cls-2" d="m101.06,35.82c-.2.66-.63.76-1.21.48.4-.16.8-.32,1.21-.48Z"></path>
        <polygon class="cls-2" points="65.89 60.65 65.9 60.62 65.74 60.46 65.89 60.65"></polygon>
        <path class="cls-6" d="m202.18,35.11c14.47-8.35,32.51-3.7,40.55,10.44,7.77,13.67,2.75,31.86-10.98,39.76-14.21,8.18-32.1,3.44-40.2-10.64-8.1-14.09-3.44-31.44,10.63-39.55h0Zm-4.48,35.77c5.84,10.5,19.02,14.29,29.51,8.49,10.87-6.01,14.73-19.01,8.8-29.66-5.99-10.76-19.03-14.56-29.69-8.66-10.54,5.84-14.45,19.36-8.62,29.83Z"></path>
        <path class="cls-1" d="m197.7,70.88c-5.83-10.47-1.92-23.99,8.62-29.83,10.66-5.91,23.7-2.1,29.69,8.66,5.93,10.66,2.08,23.65-8.8,29.66-10.49,5.8-23.67,2.01-29.51-8.49Z"></path>
      </g>
    </g>
    <g>
      <path class="cls-4" d="m287.51,88.07h10.44v6.52c1.01-1.59,5.51-7.97,13.63-7.97,3.19,0,6.67,1.16,9.28,2.46l-4.93,9.42c-2.32-1.59-4.49-2.03-6.09-2.03-4.2,0-6.81,1.74-8.41,3.77-1.74,2.32-3.48,6.38-3.48,16.24v31.75h-10.44v-60.16Z"></path>
      <path class="cls-4" d="m323.17,118.36c0-18.27,13.48-31.75,31.89-31.75s31.89,13.48,31.89,31.75-13.63,31.6-31.89,31.6-31.89-13.34-31.89-31.6Zm10.73,0c0,14.79,10.44,22.33,21.17,22.33s21.17-7.68,21.17-22.33-10.15-22.47-21.17-22.47-21.17,7.83-21.17,22.47Z"></path>
      <path class="cls-4" d="m450.02,104.88c-5.51-6.96-13.48-8.99-18.85-8.99-11.16,0-21.31,7.83-21.31,22.47s10.44,22.33,21.17,22.33c6.23,0,13.92-2.75,19.43-9.42v12.47c-6.52,4.78-13.48,6.23-19.14,6.23-18.7,0-32.18-13.34-32.18-31.46s13.63-31.89,32.18-31.89c9.57,0,15.8,3.77,18.7,5.8v12.47Z"></path>
      <path class="cls-4" d="m476.84,42.54v67.85l22.04-22.33h13.63l-25.8,25.81,30.44,34.36h-13.63l-24.07-27.4-2.61,2.61v24.79h-10.44V42.54h10.44Z"></path>
      <path class="cls-4" d="m579.48,132.86c-1.74,3.33-4.35,6.96-7.39,9.71-5.51,4.93-12.32,7.39-20.01,7.39-14.5,0-29.72-9.13-29.72-31.46,0-17.98,11.02-31.89,29.14-31.89,11.74,0,19.14,5.8,22.76,11.02,3.77,5.36,5.94,14.64,5.65,22.62h-46.83c.15,12.47,8.7,20.44,19.14,20.44,4.93,0,8.84-1.45,12.32-4.35,2.75-2.32,4.93-5.36,6.23-8.26l8.7,4.78Zm-10.29-21.31c-1.74-9.42-8.84-15.66-17.69-15.66s-16.09,6.67-17.69,15.66h35.37Z"></path>
      <path class="cls-4" d="m606.59,97.63v50.6h-10.44v-50.6h-6.38v-9.57h6.38v-21.75h10.44v21.75h10.44v9.57h-10.44Z"></path>
      <path class="cls-4" d="m633.55,135.18c3.91,0,7.25,3.33,7.25,7.25s-3.33,7.25-7.25,7.25-7.25-3.33-7.25-7.25,3.33-7.25,7.25-7.25Z"></path>
      <path class="cls-4" d="m706.03,42.54h10.44v105.69h-10.44v-8.41c-3.48,4.5-10,10.15-20.59,10.15-15.22,0-29.29-10.73-29.29-31.89s13.92-31.46,29.29-31.46c11.6,0,17.83,6.38,20.59,10v-54.08Zm-39.14,75.53c0,12.9,7.25,22.62,19.72,22.62s20.01-10.58,20.01-22.47c0-15.51-10.73-22.33-20.01-22.33-10.29,0-19.72,7.54-19.72,22.18Z"></path>
      <path class="cls-4" d="m789.53,132.86c-1.74,3.33-4.35,6.96-7.39,9.71-5.51,4.93-12.32,7.39-20.01,7.39-14.5,0-29.72-9.13-29.72-31.46,0-17.98,11.02-31.89,29.14-31.89,11.74,0,19.14,5.8,22.76,11.02,3.77,5.36,5.94,14.64,5.65,22.62h-46.83c.14,12.47,8.7,20.44,19.14,20.44,4.93,0,8.84-1.45,12.32-4.35,2.75-2.32,4.93-5.36,6.23-8.26l8.7,4.78Zm-10.29-21.31c-1.74-9.42-8.84-15.66-17.69-15.66s-16.09,6.67-17.69,15.66h35.37Z"></path>
      <path class="cls-4" d="m808.81,88.07l17.98,40.59,17.98-40.59h11.6l-29.58,64.08-29.57-64.08h11.6Z"></path>
    </g>
  </g>
</svg>